<svg width="150" height="150" viewBox="0 0 150 150" fill="none" xmlns="http://www.w3.org/2000/svg">
<path d="M140.25 66.09H9.75C9.35218 66.09 8.97064 65.9319 8.68934 65.6506C8.40804 65.3693 8.25 64.9878 8.25 64.59V36.825C8.25 36.4271 8.40804 36.0456 8.68934 35.7643C8.97064 35.483 9.35218 35.325 9.75 35.325H140.25C140.648 35.325 141.029 35.483 141.311 35.7643C141.592 36.0456 141.75 36.4271 141.75 36.825V64.59C141.75 64.9878 141.592 65.3693 141.311 65.6506C141.029 65.9319 140.648 66.09 140.25 66.09ZM11.25 63.09H138.75V38.325H11.25V63.09Z" fill="#6CCD69"/>
<path d="M134.7 135.495H15.2998C14.902 135.495 14.5204 135.337 14.2391 135.056C13.9578 134.774 13.7998 134.393 13.7998 133.995V64.5901C13.7998 64.1923 13.9578 63.8107 14.2391 63.5294C14.5204 63.2481 14.902 63.0901 15.2998 63.0901H134.7C135.098 63.0901 135.479 63.2481 135.76 63.5294C136.042 63.8107 136.2 64.1923 136.2 64.5901V133.995C136.2 134.393 136.042 134.774 135.76 135.056C135.479 135.337 135.098 135.495 134.7 135.495ZM16.7998 132.495H133.2V66.0901H16.7998V132.495Z" fill="#6CCD69"/>
<path d="M73.6055 135.495C73.2076 135.495 72.8261 135.337 72.5448 135.056C72.2635 134.774 72.1055 134.393 72.1055 133.995V15.99C72.1055 15.5922 72.2635 15.2106 72.5448 14.9293C72.8261 14.648 73.2076 14.49 73.6055 14.49C74.0033 14.49 74.3848 14.648 74.6661 14.9293C74.9474 15.2106 75.1055 15.5922 75.1055 15.99V133.995C75.1055 134.393 74.9474 134.774 74.6661 135.056C74.3848 135.337 74.0033 135.495 73.6055 135.495Z" fill="#6CCD69"/>
<path d="M73.6046 38.3251C73.4062 38.3242 73.2098 38.284 73.027 38.2068C72.8442 38.1295 72.6785 38.0168 72.5396 37.8751L57.7496 22.8751C57.5058 22.5864 57.3799 22.2163 57.3971 21.8388C57.4143 21.4613 57.5733 21.1042 57.8424 20.8389C58.1115 20.5737 58.4708 20.4197 58.8485 20.4078C59.2262 20.396 59.5944 20.5271 59.8796 20.7751L74.6696 35.7751C74.876 35.9856 75.0158 36.2524 75.0715 36.5419C75.1271 36.8315 75.0962 37.1311 74.9826 37.4032C74.8689 37.6752 74.6776 37.9078 74.4325 38.0718C74.1875 38.2357 73.8995 38.3238 73.6046 38.3251Z" fill="#6CCD69"/>
<path d="M73.605 38.325C73.3084 38.3237 73.0188 38.2346 72.7728 38.0687C72.5268 37.9029 72.3355 37.6678 72.2231 37.3933C72.1107 37.1187 72.0823 36.817 72.1414 36.5263C72.2005 36.2356 72.3444 35.9689 72.555 35.76L87.825 20.76C88.1075 20.4716 88.4929 20.3072 88.8966 20.3029C89.3003 20.2987 89.6891 20.455 89.9775 20.7375C90.266 21.0199 90.4304 21.4054 90.4346 21.8091C90.4388 22.2127 90.2825 22.6016 90 22.89L74.73 37.89C74.5828 38.0364 74.4068 38.1507 74.2132 38.2255C74.0195 38.3004 73.8125 38.3343 73.605 38.325Z" fill="#6CCD69"/>
</svg>
