<svg width="100" height="100" viewBox="0 0 100 100" fill="none" xmlns="http://www.w3.org/2000/svg">
<path d="M44.3981 50.856C45.4566 50.856 46.3148 49.9979 46.3148 48.9394C46.3148 47.8808 45.4566 47.0227 44.3981 47.0227C43.3396 47.0227 42.4814 47.8808 42.4814 48.9394C42.4814 49.9979 43.3396 50.856 44.3981 50.856Z" fill="#4AAC48"/>
<path d="M54.8141 50.8558C55.8727 50.8558 56.7308 49.9977 56.7308 48.9391C56.7308 47.8806 55.8727 47.0225 54.8141 47.0225C53.7556 47.0225 52.8975 47.8806 52.8975 48.9391C52.8975 49.9977 53.7556 50.8558 54.8141 50.8558Z" fill="#4AAC48"/>
<path d="M52.0615 53.1143C50.707 54.4683 48.5029 54.4663 47.1504 53.1143C46.7598 52.7236 46.127 52.7236 45.7363 53.1143C45.3457 53.5049 45.3457 54.1382 45.7363 54.5283C46.8027 55.5952 48.2041 56.1284 49.6064 56.1284C51.0078 56.1284 52.4092 55.5952 53.4756 54.5283C53.8662 54.1382 53.8662 53.5049 53.4756 53.1143C53.085 52.7236 52.4521 52.7236 52.0615 53.1143Z" fill="#4AAC48"/>
<path d="M28.4473 44.3263C28.6074 44.4249 28.7891 44.4747 28.9717 44.4747C29.1104 44.4747 29.25 44.4459 29.3799 44.3873C29.6265 44.2769 29.878 44.1436 30.1292 44.0106C31.0115 50.732 35.2965 56.3537 41.1527 59.1647L30.0361 82.5938C29.7988 83.0928 30.0117 83.689 30.5107 83.9259C30.6494 83.9918 30.7949 84.0225 30.9385 84.0225C31.3125 84.0225 31.6719 83.8116 31.8428 83.4512L34.207 78.4683H65.0045L67.3692 83.4512C67.54 83.8116 67.8994 84.0225 68.2734 84.0225C68.417 84.0225 68.5625 83.9918 68.7012 83.9259C69.2002 83.689 69.4131 83.0928 69.1758 82.5938L58.0596 59.1695C64.2984 56.1821 68.7169 50.0144 69.2051 42.7694C69.4551 42.8737 69.7169 42.9664 69.9932 43.043C70.293 43.1251 70.6201 43.064 70.8701 42.8726C71.1192 42.6812 71.2637 42.3844 71.2608 42.0699C71.1875 34.5362 67.9824 27.6436 62.4668 23.1593C61.8623 22.6682 61.1525 22.3668 60.4069 22.2588C61.5446 21.573 63.1185 20.987 65.209 20.9727C65.7608 20.9688 66.2061 20.5181 66.2022 19.9659C66.1983 19.4161 65.751 18.9727 65.2022 18.9727C65.2002 18.9727 65.1973 18.9727 65.1953 18.9727C62.2022 18.9931 60.0565 19.999 58.6221 21.0486C58.6569 19.7589 58.4622 18.4133 57.7647 17.3389C57.4639 16.8746 56.8457 16.7452 56.3809 17.0445C55.918 17.3453 55.7861 17.9649 56.0869 18.4278C56.387 18.8899 56.5384 19.4737 56.5993 20.1008C56.1332 19.7144 55.5799 19.417 54.9609 19.2432C53.2178 18.754 51.416 18.5059 49.6055 18.5059C37.6621 18.5059 27.9453 29.1925 27.9453 42.3277C27.9453 42.7281 27.9541 43.1251 27.9727 43.5211C27.9883 43.8512 28.166 44.1529 28.4473 44.3263ZM60.0513 68.0308H39.1594L40.3644 65.4913H58.8461L60.0513 68.0308ZM38.6553 69.0933H60.5555L62.691 73.5933H36.5201L38.6553 69.0933ZM34.7112 77.4058L36.016 74.6558H63.1952L64.5003 77.4058H34.7112ZM58.3715 64.4913H40.8389L43.0006 59.9352C45.0739 60.6811 47.2938 61.106 49.6065 61.106C51.9263 61.106 54.1436 60.6813 56.2119 59.9403L58.3715 64.4913ZM49.6065 59.106C40.4199 59.106 32.7188 51.9735 32.0009 42.8429C33.8598 41.5188 35.7241 39.7221 37.3105 37.7013C37.1748 39.2032 36.8994 40.7955 36.3711 41.7667C36.1621 42.1519 36.2275 42.628 36.5332 42.942C36.8398 43.2554 37.3125 43.3336 37.7041 43.1353C37.9736 42.9976 43.5772 40.107 47.042 35.4825C47.3379 37.3004 47.4854 39.5938 46.8379 41.0284C46.6504 41.4459 46.7695 41.9381 47.1279 42.2227C47.4893 42.5084 47.9932 42.5123 48.3574 42.234C48.6611 42.0015 55.2617 36.9356 57.9043 32.983C59.1065 34.1221 61.249 36.9205 61.0811 42.2965C61.0693 42.6846 61.2832 43.045 61.6299 43.2203C61.9756 43.3946 62.3936 43.3551 62.6992 43.1138C62.8057 43.0299 64.5957 41.6051 65.709 39.585C66.0952 40.2418 66.6077 40.9248 67.2681 41.5256C67.221 51.2268 59.3186 59.106 49.6065 59.106ZM49.6055 20.5059C51.2334 20.5059 52.8535 20.7291 54.4199 21.169C55.4697 21.4635 56.1768 22.3902 56.1416 23.4234C56.1231 23.9483 56.0352 24.4005 55.8809 24.7618C55.8154 24.9132 55.7861 25.0025 55.7861 25.0025C55.6191 25.502 55.8662 26.0489 56.3535 26.2486C56.4756 26.2985 56.6025 26.3221 56.7279 26.3228C56.7304 26.3228 56.7329 26.3243 56.7354 26.3243C56.8463 26.3243 56.9534 26.3002 57.0568 26.2649C57.0827 26.2561 57.1057 26.2436 57.1307 26.2327C57.21 26.1983 57.2831 26.1542 57.3514 26.0999C57.3754 26.0809 57.399 26.0637 57.4213 26.0424C57.5029 25.9641 57.5764 25.8759 57.6289 25.7686C57.6511 25.7243 57.6727 25.6667 57.6954 25.6075C57.7065 25.5839 57.724 25.5654 57.7334 25.5406C57.7363 25.5332 57.7459 25.5065 57.7529 25.4875C58.0386 24.881 58.5761 24.4397 59.2441 24.2769C59.9434 24.1065 60.6563 24.2647 61.2051 24.711C65.8682 28.5025 68.7285 34.191 69.1943 40.4991C67.1709 39.1353 66.5674 36.4825 66.5615 36.4527C66.4551 35.9596 66.0098 35.6075 65.4971 35.6646C64.9951 35.7076 64.6025 36.1187 64.584 36.6226C64.5361 37.8629 63.7754 39.0772 63.0166 39.9893C62.4111 33.213 58.3223 30.7398 58.1299 30.627C57.8906 30.4874 57.6035 30.4513 57.3389 30.5323C57.0732 30.6114 56.8525 30.7974 56.7295 31.0455C55.5332 33.4556 51.7178 36.8829 49.2764 38.9239C49.4141 35.9566 48.5117 32.8082 48.46 32.6309C48.3457 32.2398 48.0059 31.9566 47.6006 31.9156C47.1973 31.8697 46.8057 32.0841 46.6152 32.4439C44.8272 35.8331 41.3076 38.5323 39.0039 40.0377C39.5166 37.4024 39.4219 34.461 39.416 34.2926C39.4004 33.8487 39.0938 33.4683 38.6641 33.3585C38.2344 33.2515 37.7822 33.4361 37.5566 33.8184C35.6504 37.0406 32.6816 40.129 29.9502 41.8184C30.1953 30.0201 38.918 20.5059 49.6055 20.5059Z" fill="#4AAC48"/>
</svg>
