<svg width="100" height="100" viewBox="0 0 100 100" fill="none" xmlns="http://www.w3.org/2000/svg">
<path d="M13.3 14.78C12.6196 14.78 11.9545 14.9818 11.3888 15.3598C10.8231 15.7378 10.3822 16.275 10.1219 16.9036C9.86149 17.5322 9.79337 18.2238 9.9261 18.8911C10.0588 19.5584 10.3865 20.1714 10.8676 20.6525C11.3486 21.1336 11.9616 21.4612 12.6289 21.5939C13.2962 21.7266 13.9879 21.6585 14.6164 21.3982C15.245 21.1378 15.7823 20.6969 16.1603 20.1312C16.5382 19.5655 16.74 18.9004 16.74 18.22C16.7374 17.3085 16.3741 16.435 15.7295 15.7905C15.085 15.1459 14.2115 14.7827 13.3 14.78ZM13.3 19.67C13.0152 19.67 12.7368 19.5856 12.5 19.4273C12.2632 19.2691 12.0786 19.0442 11.9696 18.7811C11.8606 18.518 11.8321 18.2284 11.8877 17.9491C11.9432 17.6698 12.0804 17.4132 12.2818 17.2118C12.4832 17.0104 12.7397 16.8732 13.0191 16.8177C13.2984 16.7621 13.5879 16.7906 13.8511 16.8996C14.1142 17.0086 14.3391 17.1932 14.4973 17.43C14.6555 17.6668 14.74 17.9452 14.74 18.23C14.7374 18.6111 14.5848 18.9759 14.3153 19.2454C14.0459 19.5148 13.6811 19.6674 13.3 19.67ZM29.92 14.78C29.2396 14.78 28.5745 14.9818 28.0088 15.3598C27.4431 15.7378 27.0022 16.275 26.7419 16.9036C26.4815 17.5322 26.4134 18.2238 26.5461 18.8911C26.6788 19.5584 27.0065 20.1714 27.4876 20.6525C27.9686 21.1336 28.5816 21.4612 29.2489 21.5939C29.9162 21.7266 30.6079 21.6585 31.2364 21.3982C31.865 21.1378 32.4023 20.6969 32.7803 20.1312C33.1582 19.5655 33.36 18.9004 33.36 18.22C33.3574 17.3102 32.9955 16.4383 32.3531 15.794C31.7107 15.1497 30.8398 14.7853 29.93 14.78H29.92ZM29.92 19.67C29.6352 19.67 29.3568 19.5856 29.12 19.4273C28.8832 19.2691 28.6986 19.0442 28.5896 18.7811C28.4806 18.518 28.4521 18.2284 28.5077 17.9491C28.5632 17.6698 28.7004 17.4132 28.9018 17.2118C29.1032 17.0104 29.3597 16.8732 29.6391 16.8177C29.9184 16.7621 30.2079 16.7906 30.4711 16.8996C30.7342 17.0086 30.9591 17.1932 31.1173 17.43C31.2755 17.6668 31.36 17.9452 31.36 18.23C31.3574 18.6094 31.2062 18.9727 30.9389 19.2419C30.6716 19.5111 30.3094 19.6648 29.93 19.67H29.92ZM21.61 14.78C20.9296 14.78 20.2645 14.9818 19.6988 15.3598C19.1331 15.7378 18.6922 16.275 18.4319 16.9036C18.1715 17.5322 18.1034 18.2238 18.2361 18.8911C18.3688 19.5584 18.6965 20.1714 19.1776 20.6525C19.6586 21.1336 20.2716 21.4612 20.9389 21.5939C21.6062 21.7266 22.2979 21.6585 22.9264 21.3982C23.555 21.1378 24.0923 20.6969 24.4703 20.1312C24.8482 19.5655 25.05 18.9004 25.05 18.22C25.0474 17.3102 24.6855 16.4383 24.0431 15.794C23.4007 15.1497 22.5298 14.7853 21.62 14.78H21.61ZM21.61 19.67C21.3252 19.67 21.0468 19.5856 20.81 19.4273C20.5732 19.2691 20.3886 19.0442 20.2796 18.7811C20.1706 18.518 20.1421 18.2284 20.1977 17.9491C20.2532 17.6698 20.3904 17.4132 20.5918 17.2118C20.7932 17.0104 21.0497 16.8732 21.3291 16.8177C21.6084 16.7621 21.8979 16.7906 22.1611 16.8996C22.4242 17.0086 22.6491 17.1932 22.8073 17.43C22.9655 17.6668 23.05 17.9452 23.05 18.23C23.0474 18.6094 22.8962 18.9727 22.6289 19.2419C22.3616 19.5111 21.9994 19.6648 21.62 19.67H21.61ZM94 9.89001H6C5.73478 9.89001 5.48043 9.99537 5.29289 10.1829C5.10536 10.3704 5 10.6248 5 10.89V89.11C5 89.3752 5.10536 89.6296 5.29289 89.8171C5.48043 90.0047 5.73478 90.11 6 90.11H94C94.2652 90.11 94.5196 90.0047 94.7071 89.8171C94.8946 89.6296 95 89.3752 95 89.11V10.89C95 10.6248 94.8946 10.3704 94.7071 10.1829C94.5196 9.99537 94.2652 9.89001 94 9.89001ZM7 11.89H93V24.56H7V11.89ZM7 88.11V26.56H93V88.11H7ZM32.89 52.73H22.71C21.9144 52.73 21.1513 52.4139 20.5887 51.8513C20.0261 51.2887 19.71 50.5257 19.71 49.73V39.53C19.71 38.7344 20.0261 37.9713 20.5887 37.4087C21.1513 36.8461 21.9144 36.53 22.71 36.53H32.89C33.6856 36.53 34.4487 36.8461 35.0113 37.4087C35.5739 37.9713 35.89 38.7344 35.89 39.53V49.7C35.894 50.0965 35.8193 50.4898 35.6703 50.8573C35.5213 51.2247 35.301 51.559 35.022 51.8408C34.743 52.1225 34.411 52.3462 34.045 52.4988C33.6791 52.6515 33.2865 52.73 32.89 52.73ZM22.71 38.52C22.4448 38.52 22.1904 38.6254 22.0029 38.8129C21.8154 39.0004 21.71 39.2548 21.71 39.52V49.7C21.71 49.9652 21.8154 50.2196 22.0029 50.4071C22.1904 50.5947 22.4448 50.7 22.71 50.7H32.89C33.1552 50.7 33.4096 50.5947 33.5971 50.4071C33.7846 50.2196 33.89 49.9652 33.89 49.7V39.53C33.89 39.2648 33.7846 39.0104 33.5971 38.8229C33.4096 38.6354 33.1552 38.53 32.89 38.53H22.71V38.52ZM80.71 42.58H41.87C41.6048 42.58 41.3504 42.4747 41.1629 42.2871C40.9754 42.0996 40.87 41.8452 40.87 41.58C40.87 41.3148 40.9754 41.0604 41.1629 40.8729C41.3504 40.6854 41.6048 40.58 41.87 40.58H80.74C80.8713 40.58 81.0014 40.6059 81.1227 40.6561C81.244 40.7064 81.3542 40.7801 81.4471 40.8729C81.54 40.9658 81.6136 41.076 81.6639 41.1973C81.7141 41.3187 81.74 41.4487 81.74 41.58C81.74 41.7113 81.7141 41.8414 81.6639 41.9627C81.6136 42.084 81.54 42.1943 81.4471 42.2871C81.3542 42.38 81.244 42.4536 81.1227 42.5039C81.0014 42.5541 80.8713 42.58 80.74 42.58H80.71ZM61.58 49H41.87C41.6048 49 41.3504 48.8947 41.1629 48.7071C40.9754 48.5196 40.87 48.2652 40.87 48C40.87 47.7348 40.9754 47.4804 41.1629 47.2929C41.3504 47.1054 41.6048 47 41.87 47H61.58C61.8452 47 62.0996 47.1054 62.2871 47.2929C62.4746 47.4804 62.58 47.7348 62.58 48C62.58 48.2652 62.4746 48.5196 62.2871 48.7071C62.0996 48.8947 61.8452 49 61.58 49ZM74.79 49H64.9C64.6348 49 64.3804 48.8947 64.1929 48.7071C64.0054 48.5196 63.9 48.2652 63.9 48C63.9 47.7348 64.0054 47.4804 64.1929 47.2929C64.3804 47.1054 64.6348 47 64.9 47H74.79C75.0552 47 75.3096 47.1054 75.4971 47.2929C75.6846 47.4804 75.79 47.7348 75.79 48C75.79 48.2652 75.6846 48.5196 75.4971 48.7071C75.3096 48.8947 75.0552 49 74.79 49ZM80.74 49H78.67C78.4048 49 78.1504 48.8947 77.9629 48.7071C77.7754 48.5196 77.67 48.2652 77.67 48C77.67 47.7348 77.7754 47.4804 77.9629 47.2929C78.1504 47.1054 78.4048 47 78.67 47H80.74C81.0052 47 81.2596 47.1054 81.4471 47.2929C81.6346 47.4804 81.74 47.7348 81.74 48C81.74 48.2652 81.6346 48.5196 81.4471 48.7071C81.2596 48.8947 81.0052 49 80.74 49ZM32.89 78.84H22.71C21.9144 78.84 21.1513 78.5239 20.5887 77.9613C20.0261 77.3987 19.71 76.6357 19.71 75.84V65.63C19.71 64.8344 20.0261 64.0713 20.5887 63.5087C21.1513 62.9461 21.9144 62.63 22.71 62.63H32.89C33.6856 62.63 34.4487 62.9461 35.0113 63.5087C35.5739 64.0713 35.89 64.8344 35.89 65.63V75.81C35.894 76.2065 35.8193 76.5998 35.6703 76.9673C35.5213 77.3347 35.301 77.669 35.022 77.9508C34.743 78.2325 34.411 78.4562 34.045 78.6088C33.6791 78.7615 33.2865 78.84 32.89 78.84ZM22.71 64.62C22.4448 64.62 22.1904 64.7254 22.0029 64.9129C21.8154 65.1004 21.71 65.3548 21.71 65.62V75.81C21.71 76.0752 21.8154 76.3296 22.0029 76.5171C22.1904 76.7047 22.4448 76.81 22.71 76.81H32.89C33.1552 76.81 33.4096 76.7047 33.5971 76.5171C33.7846 76.3296 33.89 76.0752 33.89 75.81V65.63C33.89 65.3648 33.7846 65.1104 33.5971 64.9229C33.4096 64.7354 33.1552 64.63 32.89 64.63H22.71V64.62ZM80.71 68.68H41.87C41.6048 68.68 41.3504 68.5747 41.1629 68.3871C40.9754 68.1996 40.87 67.9452 40.87 67.68C40.87 67.4148 40.9754 67.1604 41.1629 66.9729C41.3504 66.7854 41.6048 66.68 41.87 66.68H80.74C81.0065 66.68 81.2622 66.7859 81.4506 66.9744C81.6391 67.1628 81.745 67.4185 81.745 67.685C81.745 67.9516 81.6391 68.2072 81.4506 68.3957C81.2622 68.5841 81.0065 68.69 80.74 68.69L80.71 68.68ZM61.58 75.07H41.87C41.6048 75.07 41.3504 74.9647 41.1629 74.7771C40.9754 74.5896 40.87 74.3352 40.87 74.07C40.87 73.8048 40.9754 73.5504 41.1629 73.3629C41.3504 73.1754 41.6048 73.07 41.87 73.07H61.58C61.8452 73.07 62.0996 73.1754 62.2871 73.3629C62.4746 73.5504 62.58 73.8048 62.58 74.07C62.58 74.3352 62.4746 74.5896 62.2871 74.7771C62.0996 74.9647 61.8452 75.07 61.58 75.07ZM74.79 75.07H64.9C64.6348 75.07 64.3804 74.9647 64.1929 74.7771C64.0054 74.5896 63.9 74.3352 63.9 74.07C63.9 73.8048 64.0054 73.5504 64.1929 73.3629C64.3804 73.1754 64.6348 73.07 64.9 73.07H74.79C75.0552 73.07 75.3096 73.1754 75.4971 73.3629C75.6846 73.5504 75.79 73.8048 75.79 74.07C75.79 74.3352 75.6846 74.5896 75.4971 74.7771C75.3096 74.9647 75.0552 75.07 74.79 75.07ZM80.74 75.07H78.67C78.4048 75.07 78.1504 74.9647 77.9629 74.7771C77.7754 74.5896 77.67 74.3352 77.67 74.07C77.67 73.8048 77.7754 73.5504 77.9629 73.3629C78.1504 73.1754 78.4048 73.07 78.67 73.07H80.74C81.0052 73.07 81.2596 73.1754 81.4471 73.3629C81.6346 73.5504 81.74 73.8048 81.74 74.07C81.74 74.3352 81.6346 74.5896 81.4471 74.7771C81.2596 74.9647 81.0052 75.07 80.74 75.07Z" fill="#4AAC47"/>
<path d="M23 44.5L26.5 48L34.5 40" stroke="#4AAC47" stroke-width="2" stroke-linecap="round" stroke-linejoin="round"/>
</svg>
