<svg width="300" height="300" viewBox="0 0 300 300" fill="none" xmlns="http://www.w3.org/2000/svg">
<path d="M31.8 168.6L48.6 129C44.7 126.9 42 123 42 118.5C42 111.9 47.4 106.5 54 106.5H105C111.6 106.5 117 111.9 117 118.5V186.3C118.8 185.1 120.9 184.5 123 184.5H141V121.5H135C133.5 121.5 132 120 132 118.5V82.5C132 81 133.5 79.5 135 79.5H175.2C169.2 75.9 165 69 165 61.5C165 49.8 174.3 40.5 186 40.5C196.5 40.5 205.2 48.3 206.7 58.5H207.3C208.8 48.3 217.5 40.5 228 40.5C239.7 40.5 249 49.8 249 61.5C249 69 244.8 75.9 238.8 79.5H279C280.5 79.5 282 81 282 82.5V118.5C282 120 280.5 121.5 279 121.5H273V184.5C279.6 184.5 285 189.9 285 196.5V220.5C285 227.1 279.6 232.5 273 232.5H249C247.5 247.5 234.6 259.5 219 259.5C203.4 259.5 190.5 247.5 189 232.5H90C88.5 247.5 75.6 259.5 60 259.5C44.4 259.5 31.5 247.5 30 232.5C21.6 232.5 15 225.9 15 217.5V193.5C15 182.4 21.9 172.5 31.8 168.6ZM138 85.5V115.5H186V85.5H138ZM147 121.5V184.5H186V121.5H147ZM186 46.5C177.6 46.5 171 53.1 171 61.5C171 69.9 177.6 76.5 186 76.5C186 76.5 186 76.5 186.3 76.5C187.5 68.4 193.2 61.8 200.7 59.4C199.8 52.2 193.5 46.5 186 46.5ZM207 64.5C198.6 64.5 192 71.1 192 79.5H222C222 71.1 215.4 64.5 207 64.5ZM222 115.5V85.5H192V115.5H222ZM192 121.5V184.5H222V121.5H192ZM243 61.5C243 53.1 236.4 46.5 228 46.5C220.5 46.5 214.2 52.2 213.3 59.4C220.8 61.8 226.8 68.4 227.7 76.5C227.7 76.5 227.7 76.5 228 76.5C236.4 76.5 243 69.9 243 61.5ZM276 115.5V85.5H228V115.5H276ZM228 121.5V184.5H267V121.5H228ZM219 253.5C232.2 253.5 243 242.7 243 229.5C243 216.3 232.2 205.5 219 205.5C205.8 205.5 195 216.3 195 229.5C195 242.7 205.8 253.5 219 253.5ZM117 226.5H189C190.5 211.5 203.4 199.5 219 199.5C234.6 199.5 247.5 211.5 249 226.5H273C276.3 226.5 279 223.8 279 220.5V196.5C279 193.2 276.3 190.5 273 190.5H123C119.7 190.5 117 193.2 117 196.5V226.5ZM111 118.5C111 115.2 108.3 112.5 105 112.5H54C50.7 112.5 48 115.2 48 118.5C48 121.8 50.7 124.5 54 124.5H111V118.5ZM111 130.5H54.6L39 166.8C39.9 166.8 41.1 166.5 42 166.5H108.3L87.9 146.1C86.7 144.9 86.7 143.1 87.9 141.9C89.1 140.7 90.9 140.7 92.1 141.9L111 160.8V130.5ZM60 253.5C73.2 253.5 84 242.7 84 229.5C84 216.3 73.2 205.5 60 205.5C46.8 205.5 36 216.3 36 229.5C36 242.7 46.8 253.5 60 253.5ZM21 217.5C21 222.3 24.9 226.5 30 226.5C31.5 211.5 44.4 199.5 60 199.5C75.6 199.5 88.5 211.5 90 226.5H111V172.5H42C33 172.5 25.5 178.2 22.5 186H42C43.5 186 45 187.5 45 189C45 190.5 43.5 192 42 192H21C21 192.6 21 192.9 21 193.5V217.5ZM57.3 187.8C57.3 188.1 57 188.4 57 189C57 189.6 57 189.9 57.3 190.2C57.6 190.5 57.6 190.8 57.9 191.1C58.2 191.4 58.5 191.7 58.8 191.7C59.1 191.7 59.7 192 60 192C60.9 192 61.5 191.7 62.1 191.1C62.4 190.8 62.7 190.5 62.7 190.2C63 189.9 63 189.3 63 189C63 188.7 63 188.1 62.7 187.8C62.7 187.5 62.4 187.2 62.1 186.9C60.9 185.7 58.8 185.7 57.9 186.9C57.6 187.2 57.3 187.5 57.3 187.8ZM60 220.5C65.1 220.5 69 224.4 69 229.5C69 234.3 65.1 238.5 60 238.5C54.9 238.5 51 234.3 51 229.5C51 224.4 54.9 220.5 60 220.5ZM60 232.5C61.5 232.5 63 231 63 229.5C63 228 61.5 226.5 60 226.5C58.5 226.5 57 228 57 229.5C57 231 58.5 232.5 60 232.5ZM219 220.5C224.1 220.5 228 224.4 228 229.5C228 234.3 224.1 238.5 219 238.5C213.9 238.5 210 234.3 210 229.5C210 224.4 213.9 220.5 219 220.5ZM219 232.5C220.5 232.5 222 231 222 229.5C222 228 220.5 226.5 219 226.5C217.5 226.5 216 228 216 229.5C216 231 217.5 232.5 219 232.5Z" fill="#4AAC47"/>
<path d="M117 226.5H189C190.5 211.5 203.4 199.5 219 199.5C234.6 199.5 247.5 211.5 249 226.5H273C276.3 226.5 279 223.8 279 220.5V196.5C279 193.2 276.3 190.5 273 190.5H123C119.7 190.5 117 193.2 117 196.5V226.5Z" fill="#4AAC47"/>
<path fill-rule="evenodd" clip-rule="evenodd" d="M21 217.5C21 222.3 24.9 226.5 30 226.5C31.5 211.5 44.4 199.5 60 199.5C75.6 199.5 88.5 211.5 90 226.5H111V172.5H42C33 172.5 25.5 178.2 22.5 186H42C43.5 186 45 187.5 45 189C45 190.5 43.5 192 42 192H21V193.5V217.5ZM57 189C57 188.4 57.3 188.1 57.3 187.8C57.3 187.5 57.6 187.2 57.9 186.9C58.8 185.7 60.9 185.7 62.1 186.9C62.4 187.2 62.7 187.5 62.7 187.8C63 188.1 63 188.7 63 189C63 189.3 63 189.9 62.7 190.2C62.7 190.5 62.4 190.8 62.1 191.1C61.5 191.7 60.9 192 60 192C59.7 192 59.1 191.7 58.8 191.7C58.5 191.7 58.2 191.4 57.9 191.1C57.6 190.8 57.6 190.5 57.3 190.2C57 189.9 57 189.6 57 189Z" fill="#4AAC47"/>
<path d="M111 118.5C111 115.2 108.3 112.5 105 112.5H54C50.7 112.5 48 115.2 48 118.5C48 121.8 50.7 124.5 54 124.5H111V118.5Z" fill="#4AAC47"/>
</svg>
