<svg width="100" height="100" viewBox="0 0 100 100" fill="none" xmlns="http://www.w3.org/2000/svg">
<path d="M92.4031 57.8021L87.1583 45.8104C87.076 45.6198 86.8875 45.4979 86.6813 45.4979H76.326C79.7646 43.399 81.9531 39.625 81.9531 35.5125C81.9531 29.0594 76.7021 23.8083 70.249 23.8083C64.1573 23.8083 59.1354 28.4531 58.6042 34.4708H21.3979C21.1104 34.4708 20.8771 34.7042 20.8771 34.9917V36.0333C20.8771 36.3208 21.1104 36.5542 21.3979 36.5542H58.6042C59.1021 42.2188 63.5427 46.6594 69.2073 47.1573V68.4458H39.1833C39.1469 68.2219 39.0979 67.9948 39.0354 67.7625C39.0344 67.7583 38.999 67.6219 38.9979 67.6188C38.8979 67.2771 38.7667 66.9344 38.6083 66.6052L38.5333 66.45C38.3688 66.1302 38.1813 65.8261 37.9833 65.5573L37.8719 65.4083C37.6583 65.1302 37.4208 64.8667 37.1646 64.624C37.1615 64.6198 37.0417 64.5115 37.0375 64.5083C36.7688 64.2677 36.4844 64.05 36.1927 63.8604L35.9104 64.2979L36.0604 63.7792C35.7406 63.5834 35.4125 63.4146 35.0865 63.2813C35.0833 63.2802 34.9719 63.2396 34.9688 63.2375C34.5969 63.0938 34.226 62.9854 33.901 62.9229C33.8875 62.9198 33.8021 62.9042 33.7885 62.9011C32.9323 62.7448 32.275 62.7313 31.2604 62.9146C30.9 62.9844 30.5292 63.0938 30.1573 63.2375C30.1542 63.2396 30.0427 63.2802 30.0396 63.2813C29.7167 63.4125 29.3885 63.5802 29.0646 63.7781C29.0604 63.7813 28.9344 63.8573 28.9302 63.8604C28.6365 64.0521 28.3531 64.2708 28.0865 64.5083L27.9635 64.6219C27.7073 64.8625 27.4687 65.1271 27.2531 65.4083C27.2531 65.4083 27.151 65.5438 27.15 65.5448C26.9385 65.8354 26.75 66.1406 26.5906 66.4531C26.5885 66.4563 26.5219 66.5948 26.5198 66.599C26.3583 66.9354 26.225 67.2792 26.1281 67.6188L26.0906 67.7636C26.0292 67.9917 25.9802 68.2198 25.9427 68.4469H21.3958C21.1083 68.4469 20.875 68.6802 20.875 68.9677V70.0094C20.875 70.2969 21.1083 70.5302 21.3958 70.5302H25.9448C26.451 73.7417 29.2698 76.1927 32.5635 76.1927C35.8573 76.1927 38.675 73.7417 39.1812 70.5302H72.2031C72.7094 73.7417 75.5281 76.1927 78.8219 76.1927C82.1156 76.1927 84.9333 73.7417 85.4406 70.5302H91.9281C92.2156 70.5302 92.449 70.2969 92.449 70.0094V58.0104C92.4469 57.9386 92.4313 57.8688 92.4031 57.8021ZM32.5646 74.1083C30.0167 74.1083 27.9437 72.0354 27.9437 69.4865C27.9437 66.9375 30.0167 64.8646 32.5646 64.8646C35.1125 64.8646 37.1854 66.9375 37.1854 69.4865C37.1854 72.0354 35.1125 74.1083 32.5646 74.1083ZM60.6271 35.5136C60.6271 30.2083 64.9438 25.8927 70.2479 25.8927C75.5521 25.8927 79.8688 30.2094 79.8688 35.5136C79.8688 40.8177 75.5521 45.1344 70.2479 45.1344C64.9438 45.1344 60.6271 40.8188 60.6271 35.5136ZM78.8229 74.1083C76.275 74.1083 74.201 72.0354 74.201 69.4865C74.201 66.9375 76.274 64.8646 78.8229 64.8646C81.3719 64.8646 83.4448 66.9375 83.4448 69.4865C83.4448 72.0354 81.3708 74.1083 78.8229 74.1083ZM90.3656 68.4448H85.4406C85.4042 68.2208 85.3552 67.9927 85.2927 67.7656C85.2927 67.7625 85.2552 67.6177 85.2542 67.6146C85.1552 67.275 85.024 66.9354 84.8708 66.6156C84.8448 66.5563 84.8167 66.499 84.7896 66.4448C84.6281 66.1313 84.4406 65.8292 84.2385 65.5521L84.1292 65.4021C83.9135 65.1229 83.676 64.8604 83.424 64.6229L83.2948 64.5052C83.0312 64.2677 82.749 64.05 82.4385 63.849L82.3198 63.7771C81.999 63.5802 81.6719 63.4125 81.3469 63.2792C81.3438 63.2781 81.2313 63.2375 81.2281 63.2365C80.851 63.0896 80.4906 62.9844 80.1542 62.9188C80.1438 62.9167 80.0594 62.9011 80.0479 62.899C79.1917 62.7427 78.5354 62.7292 77.5219 62.9125C77.1583 62.9833 76.799 63.0896 76.4198 63.2354C76.4167 63.2375 76.3052 63.2781 76.3021 63.2792C75.9771 63.4115 75.65 63.5792 75.3385 63.7708L75.1917 63.8594C74.899 64.0511 74.6156 64.2688 74.3313 64.525L74.2229 64.624C73.9656 64.8677 73.7281 65.1302 73.5229 65.3979L73.4135 65.5458C73.2042 65.8292 73.0167 66.1333 72.8583 66.4438L72.7813 66.6042C72.6198 66.9417 72.4896 67.2813 72.3948 67.6083L72.3542 67.7646C72.2906 67.9969 72.2417 68.2292 72.2073 68.4438H71.2917V47.5823H85.6635L90.3677 58.2323L90.3656 68.4448Z" fill="#4AAC47"/>
<path d="M8.07381 42.9312H41.0332C41.3207 42.9312 41.554 42.6979 41.554 42.4104V41.3687C41.554 41.0812 41.3207 40.8479 41.0332 40.8479H8.07381C7.78631 40.8479 7.55298 41.0812 7.55298 41.3687V42.4104C7.55298 42.6979 7.78631 42.9312 8.07381 42.9312Z" fill="#4AAC47"/>
<path d="M8.07381 51.5802H49.2144C49.5019 51.5802 49.7353 51.3469 49.7353 51.0594V50.0188C49.7353 49.7313 49.5019 49.4979 49.2144 49.4979H8.07381C7.78631 49.4979 7.55298 49.7313 7.55298 50.0188V51.0594C7.55298 51.3469 7.78631 51.5802 8.07381 51.5802Z" fill="#4AAC47"/>
<path d="M41.554 59.7074V58.6657C41.554 58.3782 41.3207 58.1449 41.0332 58.1449H8.07381C7.78631 58.1449 7.55298 58.3782 7.55298 58.6657V59.7074C7.55298 59.9949 7.78631 60.2282 8.07381 60.2282H41.0332C41.3207 60.2282 41.554 59.996 41.554 59.7074Z" fill="#4AAC47"/>
<path d="M74.3915 34.4708H71.2894V27.8145C71.2894 27.527 71.0561 27.2937 70.7686 27.2937H69.7269C69.4394 27.2937 69.2061 27.527 69.2061 27.8145V36.0333C69.2061 36.3208 69.4394 36.5541 69.7269 36.5541H74.3915C74.679 36.5541 74.9123 36.3208 74.9123 36.0333V34.9916C74.9123 34.7031 74.679 34.4708 74.3915 34.4708Z" fill="#4AAC47"/>
</svg>
