<svg width="607" height="440" viewBox="0 0 607 440" fill="none" xmlns="http://www.w3.org/2000/svg">
<path d="M208.625 223.144C211.032 229.02 215.473 232.881 218.783 234.893C221.329 236.441 223.243 237.203 225.196 238.095C225.196 238.095 237.216 235.418 241.349 221.123C243.01 215.379 243.207 211.869 242.944 205.895C242.897 204.824 242.84 203.808 242.772 202.835C242.772 202.835 237.333 205.096 235.196 204.029C233.592 203.228 229.545 199.546 227.043 195.618C225.172 192.681 221.295 187.74 221.162 188.675C221.029 189.611 220.093 189.289 219.292 188.409C218.377 187.403 218.21 186.027 219.023 184.937C219.638 184.112 221.002 183.588 222.362 184.267C223.431 184.801 227.039 187.604 230.113 190.14C232.124 191.8 233.44 192.477 236.124 192.14C238.261 191.872 240.925 191.428 240.925 191.428C240.209 188.839 239.258 186.17 237.99 183.057C235.823 177.737 230.997 170.117 230.997 170.117C228.478 170.392 225.511 170.544 221.821 170.643L213.673 170.246C212.578 172.699 211.835 174.02 210.871 176.526C209.425 180.284 208.846 182.488 207.937 186.412C207.862 186.739 207.79 187.057 207.721 187.365C207.671 187.59 207.623 187.811 207.577 188.027C206.806 191.623 206.506 194.123 206.074 198.167C206.036 198.521 206 198.862 205.967 199.192C205.587 202.977 205.52 205.313 205.812 209.387C206.203 214.839 206.223 217.281 208.625 223.144Z" fill="#DEE8AD"/>
<path d="M234.414 241.697C230.68 240.544 227.955 239.356 225.196 238.095C225.196 238.095 225.03 242.99 224.275 246.007C223.368 249.635 220.405 253.089 220.94 254.691C221.609 256.695 223.257 256.929 225.348 257.227L225.35 257.227C228.155 257.626 232.868 256.834 237.338 255.924C237.341 255.919 237.343 255.914 237.346 255.909C237.348 255.905 237.35 255.902 237.351 255.899C237.444 255.72 237.539 255.538 237.635 255.354C238.302 254.062 238.997 252.634 239.361 251.178C240.116 248.16 240.282 243.266 240.282 243.266C238.03 242.747 236.052 242.203 234.414 241.697Z" fill="#DEE8AD"/>
<path d="M300.279 222.375C302.622 224.118 304.198 225.231 306.936 226.832C307.537 227.183 308.084 227.511 308.602 227.818C308.602 227.818 309.132 222.091 307.601 220.821C305.225 218.85 300.279 222.375 300.279 222.375Z" fill="#DEE8AD"/>
<path d="M292.206 215.719C292.739 216.229 293.318 216.762 293.975 217.355C295.987 219.171 297.222 220.093 299.369 221.697L299.454 221.76C299.74 221.974 300.014 222.179 300.279 222.375C300.279 222.375 302.613 217.275 300.786 215.081C299.469 213.499 292.206 215.719 292.206 215.719Z" fill="#DEE8AD"/>
<path d="M284.119 205.951C285.17 207.571 286.267 209.053 287.827 210.947C289.469 212.941 290.647 214.231 292.206 215.719C292.206 215.719 295.238 209.471 293.034 206.536C291.43 204.4 284.119 205.951 284.119 205.951Z" fill="#DEE8AD"/>
<path d="M277.908 194.22C278.898 196.668 280.022 198.947 281.678 201.867C282.58 203.458 283.337 204.743 284.119 205.951C284.119 205.951 288.992 199.829 287.018 196.521C286.246 195.228 277.908 194.22 277.908 194.22Z" fill="#DEE8AD"/>
<path d="M274 181.719C274.41 183.597 274.928 185.56 275.66 187.845C276.453 190.323 277.141 192.322 277.908 194.22C277.908 194.22 283.454 188.805 282.604 185.972C281.634 182.733 274 181.719 274 181.719Z" fill="#DEE8AD"/>
<path d="M271.763 167.771C271.876 168.703 272.011 169.687 272.178 170.75C272.86 175.099 273.247 178.265 274 181.719C274 181.719 281.179 177.701 279.927 173.951C278.99 171.147 271.763 167.771 271.763 167.771Z" fill="#DEE8AD"/>
<path d="M278.182 159.393C277.246 156.588 270.299 154.455 270.299 154.455C271.158 159.785 271.197 163.126 271.763 167.771C271.763 167.771 279.253 162.598 278.182 159.393Z" fill="#DEE8AD"/>
<path d="M267.523 140.241C268.965 144.676 269.386 148.791 270.299 154.455C270.299 154.455 278.224 150.183 277.24 145.902C276.285 141.741 267.523 140.241 267.523 140.241Z" fill="#DEE8AD"/>
<path d="M261.698 128.826C262.731 130.177 263.646 131.673 264.678 133.62C265.952 136.025 266.849 138.168 267.523 140.241C267.523 140.241 272.306 134.192 271.088 131.48C269.35 127.607 261.698 128.826 261.698 128.826Z" fill="#DEE8AD"/>
<path d="M249.38 118.48C251.903 119.783 253.806 121.259 256.391 123.473C258.74 125.486 260.324 127.028 261.698 128.826C261.698 128.826 264.804 119.328 261.597 116.391C259.276 114.266 249.38 118.48 249.38 118.48Z" fill="#DEE8AD"/>
<path d="M233.21 114.066C238.068 114.309 241.321 115.123 246.236 117.067C247.415 117.533 248.44 117.995 249.38 118.48C249.38 118.48 247.567 107.716 244.093 106.65C239.132 105.126 233.21 114.066 233.21 114.066Z" fill="#DEE8AD"/>
<path d="M215.721 116.369C220.798 114.081 225.13 113.866 231.408 114.003C232.035 114.016 232.634 114.037 233.21 114.066C233.21 114.066 230.297 106.593 226.061 105.991C220.542 105.208 215.721 116.369 215.721 116.369Z" fill="#DEE8AD"/>
<path d="M205.967 199.192C206 198.862 206.036 198.521 206.074 198.167C206.506 194.123 206.806 191.623 207.577 188.027C207.623 187.811 207.671 187.59 207.721 187.365C205.037 187.702 203.025 186.873 201.013 185.213C197.94 182.677 194.332 179.874 193.263 179.34C191.902 178.66 190.539 179.184 189.924 180.009C189.111 181.1 189.278 182.476 190.193 183.482C190.994 184.362 191.93 184.683 192.063 183.748C192.196 182.813 196.073 187.753 197.944 190.691C200.446 194.619 204.364 198.392 205.967 199.192Z" fill="#DEE8AD"/>
<path d="M188.154 157.838C189.892 161.71 192.564 163.045 196.305 164.913C202.991 168.251 206.593 169.048 213.673 170.246L221.821 170.643C225.511 170.544 228.478 170.392 230.997 170.117C230.997 170.117 235.823 177.737 237.99 183.057C239.258 186.17 240.209 188.839 240.925 191.428C240.925 191.428 238.261 191.872 236.124 192.14C233.44 192.477 232.124 191.8 230.113 190.14C227.039 187.604 223.431 184.801 222.362 184.267C221.002 183.588 219.638 184.112 219.023 184.937C218.21 186.027 218.377 187.403 219.292 188.409C220.093 189.289 221.029 189.611 221.162 188.675C221.295 187.74 225.172 192.681 227.043 195.618C229.545 199.546 233.592 203.228 235.196 204.029C237.333 205.096 242.772 202.835 242.772 202.835C242.84 203.808 242.897 204.824 242.944 205.895C243.207 211.869 243.01 215.379 241.349 221.123C237.216 235.418 225.196 238.095 225.196 238.095C227.955 239.356 230.68 240.544 234.414 241.697C236.052 242.203 238.03 242.747 240.282 243.266C240.282 243.266 240.116 248.16 239.361 251.178C238.997 252.634 238.302 254.062 237.635 255.354C237.539 255.538 237.444 255.72 237.351 255.899L237.346 255.909L237.338 255.924C236.465 257.599 235.738 258.999 236.027 259.862C236.696 261.865 238.344 262.1 240.434 262.397L240.436 262.398C243.241 262.797 247.585 262.099 252.056 261.189C255.454 260.497 260.737 259.181 262.339 257.31C263.484 255.973 264.06 254.601 264.34 252.634C264.739 249.829 264.601 246.114 264.601 246.114C269.207 246.409 273.356 246.563 279.564 246.215C289.181 245.675 294.657 244.737 304.54 242.328C311.517 240.627 318.212 237.429 320.165 235.774C322.422 233.862 322.1 232.902 321.632 232.167C320.881 230.989 317.484 231.651 314.953 230.835C312.285 229.975 310.685 229.058 308.602 227.818C308.084 227.511 307.537 227.183 306.936 226.832C304.198 225.231 302.622 224.118 300.279 222.375C300.014 222.179 299.74 221.974 299.454 221.76L299.369 221.697C297.222 220.093 295.987 219.171 293.975 217.355C293.318 216.762 292.739 216.229 292.206 215.719C290.647 214.231 289.469 212.941 287.827 210.947C286.267 209.053 285.17 207.571 284.119 205.951C283.337 204.743 282.58 203.458 281.678 201.867C280.022 198.947 278.898 196.668 277.908 194.22C277.141 192.322 276.453 190.323 275.66 187.845C274.928 185.56 274.41 183.597 274 181.719C273.247 178.265 272.86 175.099 272.178 170.75C272.011 169.687 271.876 168.703 271.763 167.771C271.197 163.126 271.158 159.785 270.299 154.455C269.386 148.791 268.965 144.676 267.523 140.241C266.849 138.168 265.952 136.025 264.678 133.62C263.646 131.673 262.731 130.177 261.698 128.826C260.324 127.028 258.74 125.486 256.391 123.473C253.806 121.259 251.903 119.783 249.38 118.48C248.44 117.995 247.415 117.533 246.236 117.067C241.321 115.123 238.068 114.309 233.21 114.066C232.634 114.037 232.035 114.016 231.408 114.003C225.13 113.866 220.798 114.081 215.721 116.369C214.627 116.862 213.499 117.451 212.309 118.154C207.102 121.229 203.497 125.104 200.16 129.781C195.637 136.121 192.42 142.608 188.95 148.22C188.007 149.744 186.295 153.697 188.154 157.838Z" fill="#DEE8AD"/>
<path d="M242.045 168.049C242.536 167.796 242.73 167.193 242.477 166.702C242.224 166.211 241.622 166.018 241.13 166.27L242.045 168.049ZM221.821 170.643L221.772 171.642C221.797 171.643 221.822 171.643 221.848 171.642L221.821 170.643ZM196.305 164.913L196.752 164.018L196.305 164.913ZM188.95 148.22L188.099 147.694L188.95 148.22ZM200.16 129.781L200.974 130.362L200.16 129.781ZM212.309 118.154L211.801 117.293L212.309 118.154ZM231.408 114.003L231.43 113.003L231.408 114.003ZM246.236 117.067L245.868 117.997L246.236 117.067ZM256.391 123.473L257.042 122.714L256.391 123.473ZM264.678 133.62L263.794 134.089L264.678 133.62ZM270.299 154.455L269.312 154.614L270.299 154.455ZM272.178 170.75L271.19 170.905L272.178 170.75ZM275.66 187.845L276.612 187.54L275.66 187.845ZM281.678 201.867L280.808 202.361L281.678 201.867ZM287.827 210.947L288.599 210.311L287.827 210.947ZM293.975 217.355L293.305 218.098L293.975 217.355ZM299.454 221.76L298.855 222.561L299.454 221.76ZM306.936 226.832L306.432 227.695L306.936 226.832ZM314.953 230.835L314.646 231.787L314.953 230.835ZM321.632 232.167L322.476 231.63L321.632 232.167ZM320.165 235.774L320.811 236.537L320.165 235.774ZM304.54 242.328L304.777 243.299L304.54 242.328ZM279.564 246.215L279.508 245.216L279.564 246.215ZM234.414 241.697L234.119 242.652L234.414 241.697ZM218.783 234.893L218.263 235.747L218.783 234.893ZM208.625 223.144L209.55 222.765L208.625 223.144ZM205.812 209.387L204.815 209.459L205.812 209.387ZM206.074 198.167L205.079 198.061L206.074 198.167ZM207.937 186.412L206.963 186.186L206.963 186.186L207.937 186.412ZM210.871 176.526L211.804 176.885L210.871 176.526ZM230.997 170.117L230.888 169.123L230.997 170.117ZM237.99 183.057L238.916 182.679L237.99 183.057ZM242.944 205.895L241.945 205.939L242.944 205.895ZM241.349 221.123L240.388 220.845L241.349 221.123ZM215.721 116.369L216.132 117.281L215.721 116.369ZM226.061 105.991L225.92 106.981L226.061 105.991ZM233.21 114.066L233.16 115.065L233.21 114.066ZM244.093 106.65L243.8 107.606L244.093 106.65ZM261.597 116.391L260.921 117.129L261.597 116.391ZM261.698 128.826L260.904 129.433L261.698 128.826ZM271.088 131.48L272.001 131.07L271.088 131.48ZM267.523 140.241L266.572 140.55L267.523 140.241ZM277.24 145.902L276.266 146.126L277.24 145.902ZM271.763 167.771L270.77 167.892L271.763 167.771ZM274 181.719L273.023 181.933L274 181.719ZM282.604 185.972L281.647 186.259L282.604 185.972ZM277.908 194.22L276.981 194.594L277.908 194.22ZM287.018 196.521L286.159 197.034L287.018 196.521ZM284.119 205.951L283.28 206.494L284.119 205.951ZM293.034 206.536L292.234 207.137L293.034 206.536ZM300.786 215.081L301.554 214.441L300.786 215.081ZM307.601 220.821L308.239 220.051L307.601 220.821ZM308.602 227.818L308.091 228.678L308.602 227.818ZM240.925 191.428L241.089 192.415L241.098 192.413L240.925 191.428ZM236.124 192.14L236.249 193.133L236.124 192.14ZM230.113 190.14L230.749 189.369L230.113 190.14ZM222.362 184.267L222.809 183.372L222.362 184.267ZM219.023 184.937L219.825 185.534L219.023 184.937ZM219.292 188.409L218.553 189.082L219.292 188.409ZM243.91 191.919C244.454 191.824 244.818 191.305 244.722 190.761C244.627 190.217 244.108 189.854 243.564 189.949L243.91 191.919ZM247.483 201.867C247.989 201.645 248.219 201.056 247.998 200.55C247.777 200.044 247.187 199.813 246.681 200.034L247.483 201.867ZM240.282 243.266L241.281 243.3L241.282 243.288L240.282 243.266ZM239.361 251.178L238.391 250.935L239.361 251.178ZM240.436 262.398L240.285 263.386L240.295 263.388L240.436 262.398ZM252.056 261.189L251.857 260.209L252.056 261.189ZM262.339 257.31L261.58 256.66L262.339 257.31ZM241.422 237.041C241.435 236.489 240.997 236.031 240.445 236.019C239.893 236.007 239.435 236.444 239.423 236.996L241.422 237.041ZM265.198 240.144C265.16 239.593 264.683 239.177 264.132 239.214C263.581 239.252 263.165 239.729 263.202 240.28L265.198 240.144ZM224.275 246.007L223.305 245.765L224.275 246.007ZM225.35 257.227L225.199 258.216L225.209 258.217L225.35 257.227ZM201.013 185.213L201.65 184.442L201.013 185.213ZM193.263 179.34L193.71 178.445L193.263 179.34ZM189.924 180.009L190.726 180.607L189.924 180.009ZM190.193 183.482L189.454 184.155L189.454 184.155L190.193 183.482ZM205.967 199.192L206.962 199.292L206.962 199.292L205.967 199.192ZM299.369 221.697L299.968 220.896L299.968 220.896L299.369 221.697ZM225.348 257.227L225.499 256.238L225.489 256.237L225.348 257.227ZM237.635 255.354L236.746 254.895L236.746 254.895L237.635 255.354ZM237.351 255.899L236.465 255.436L236.465 255.436L237.351 255.899ZM240.434 262.397L240.586 261.409L240.575 261.407L240.434 262.397ZM207.577 188.027L206.599 187.818L207.577 188.027ZM196.752 164.018C192.996 162.143 190.643 160.941 189.066 157.428L187.241 158.247C189.141 162.479 192.132 163.947 195.858 165.807L196.752 164.018ZM189.066 157.428C187.407 153.733 188.93 150.154 189.8 148.746L188.099 147.694C187.085 149.334 185.182 153.661 187.241 158.247L189.066 157.428ZM189.8 148.746C193.343 143.016 196.466 136.68 200.974 130.362L199.346 129.2C194.807 135.562 191.496 142.2 188.099 147.694L189.8 148.746ZM200.974 130.362C204.26 125.756 207.768 121.996 212.818 119.015L211.801 117.293C206.435 120.461 202.734 124.452 199.346 129.2L200.974 130.362ZM314.646 231.787C316.061 232.243 317.708 232.284 318.894 232.363C319.527 232.405 320.018 232.455 320.384 232.547C320.772 232.644 320.811 232.739 320.789 232.704L322.476 231.63C322.078 231.006 321.411 230.742 320.871 230.607C320.31 230.466 319.654 230.409 319.027 230.367C317.694 230.279 316.376 230.243 315.26 229.883L314.646 231.787ZM320.789 232.704C320.967 232.984 320.994 233.111 320.95 233.286C320.885 233.549 320.597 234.097 319.518 235.011L320.811 236.537C321.989 235.539 322.67 234.651 322.89 233.772C323.133 232.806 322.766 232.085 322.476 231.63L320.789 232.704ZM319.518 235.011C318.66 235.738 316.613 236.904 313.836 238.117C311.091 239.317 307.728 240.521 304.303 241.356L304.777 243.299C308.329 242.433 311.802 241.189 314.637 239.95C317.439 238.725 319.716 237.465 320.811 236.537L319.518 235.011ZM304.303 241.356C294.467 243.754 289.052 244.681 279.508 245.216L279.62 247.213C289.31 246.67 294.848 245.72 304.777 243.299L304.303 241.356ZM219.302 234.039C216.117 232.102 211.854 228.388 209.55 222.765L207.699 223.523C210.21 229.651 214.829 233.66 218.263 235.747L219.302 234.039ZM209.55 222.765C207.212 217.059 207.2 214.753 206.81 209.316L204.815 209.459C205.207 214.926 205.233 217.503 207.699 223.523L209.55 222.765ZM206.81 209.316C206.497 204.957 206.6 202.644 207.068 198.274L205.079 198.061C204.602 202.523 204.492 204.957 204.815 209.459L206.81 209.316ZM208.912 186.637C209.814 182.738 210.381 180.584 211.804 176.885L209.937 176.167C208.469 179.985 207.877 182.239 206.963 186.186L208.912 186.637ZM221.821 170.643C221.869 169.644 221.869 169.644 221.869 169.644C221.869 169.644 221.869 169.644 221.869 169.644C221.869 169.644 221.869 169.644 221.868 169.644C221.868 169.644 221.867 169.644 221.866 169.644C221.863 169.644 221.86 169.644 221.855 169.643C221.845 169.643 221.831 169.642 221.813 169.641C221.776 169.639 221.721 169.637 221.65 169.633C221.508 169.626 221.301 169.616 221.044 169.604C220.528 169.579 219.808 169.544 218.988 169.504C217.349 169.424 215.312 169.325 213.721 169.248L213.624 171.245C215.215 171.323 217.252 171.422 218.891 171.501C219.711 171.541 220.431 171.576 220.946 171.601C221.204 171.614 221.41 171.624 221.553 171.631C221.624 171.634 221.678 171.637 221.716 171.639C221.734 171.64 221.748 171.64 221.758 171.641C221.762 171.641 221.766 171.641 221.768 171.641C221.77 171.642 221.771 171.642 221.771 171.642C221.771 171.642 221.772 171.642 221.772 171.642C221.772 171.642 221.772 171.642 221.772 171.642C221.772 171.642 221.772 171.642 221.821 170.643ZM213.839 169.26C206.811 168.071 203.316 167.296 196.752 164.018L195.858 165.807C202.666 169.207 206.374 170.025 213.506 171.232L213.839 169.26ZM211.804 176.885C212.758 174.404 213.456 173.186 214.586 170.654L212.759 169.839C211.701 172.212 210.911 173.635 209.937 176.167L211.804 176.885ZM241.13 166.27C238.116 167.82 235.203 168.652 230.888 169.123L231.105 171.111C235.61 170.619 238.77 169.733 242.045 168.049L241.13 166.27ZM230.888 169.123C228.41 169.394 225.476 169.544 221.794 169.643L221.848 171.642C225.547 171.543 228.546 171.391 231.105 171.111L230.888 169.123ZM230.997 170.117C230.152 170.652 230.152 170.652 230.152 170.652C230.152 170.652 230.152 170.652 230.152 170.652C230.152 170.652 230.152 170.653 230.153 170.653C230.153 170.654 230.154 170.655 230.155 170.657C230.157 170.66 230.161 170.666 230.165 170.673C230.174 170.687 230.187 170.708 230.205 170.736C230.24 170.792 230.292 170.875 230.36 170.983C230.494 171.2 230.69 171.516 230.931 171.911C231.414 172.703 232.08 173.815 232.814 175.09C234.287 177.653 236.007 180.84 237.063 183.434L238.916 182.679C237.806 179.954 236.029 176.671 234.548 174.094C233.804 172.8 233.128 171.673 232.639 170.87C232.394 170.469 232.195 170.147 232.057 169.926C231.989 169.816 231.935 169.73 231.898 169.672C231.88 169.643 231.866 169.621 231.857 169.606C231.852 169.598 231.848 169.592 231.846 169.588C231.844 169.586 231.844 169.585 231.843 169.584C231.843 169.583 231.842 169.583 231.842 169.583C231.842 169.582 231.842 169.582 231.842 169.582C231.842 169.582 231.842 169.582 230.997 170.117ZM241.945 205.939C242.204 211.838 242.011 215.234 240.388 220.845L242.31 221.401C244.009 215.524 244.209 211.899 243.943 205.851L241.945 205.939ZM234.709 240.741C231.035 239.607 228.355 238.439 225.611 237.186L224.78 239.005C227.554 240.272 230.324 241.481 234.119 242.652L234.709 240.741ZM225.611 237.186C223.623 236.277 221.784 235.548 219.302 234.039L218.263 235.747C220.875 237.335 222.864 238.129 224.78 239.005L225.611 237.186ZM240.388 220.845C238.395 227.739 234.515 231.803 231.15 234.149C229.463 235.326 227.902 236.073 226.768 236.525C226.202 236.75 225.744 236.901 225.433 236.995C225.277 237.041 225.158 237.074 225.081 237.094C225.042 237.104 225.014 237.111 224.996 237.115C224.988 237.117 224.982 237.118 224.979 237.119C224.977 237.12 224.976 237.12 224.976 237.12C224.976 237.12 224.976 237.12 224.977 237.12C224.977 237.12 224.977 237.12 224.977 237.119C224.978 237.119 224.978 237.119 225.196 238.095C225.413 239.071 225.414 239.071 225.414 239.071C225.415 239.071 225.415 239.071 225.416 239.071C225.417 239.071 225.418 239.07 225.419 239.07C225.422 239.069 225.426 239.069 225.43 239.068C225.439 239.066 225.45 239.063 225.464 239.06C225.493 239.053 225.532 239.043 225.583 239.03C225.684 239.004 225.827 238.965 226.008 238.91C226.37 238.801 226.883 238.632 227.508 238.383C228.758 237.885 230.46 237.069 232.294 235.79C235.974 233.224 240.17 228.801 242.31 221.401L240.388 220.845ZM212.818 119.015C213.98 118.328 215.076 117.757 216.132 117.281L215.31 115.457C214.179 115.967 213.018 116.574 211.801 117.293L212.818 119.015ZM216.132 117.281C220.998 115.088 225.142 114.866 231.386 115.003L231.43 113.003C225.117 112.865 220.599 113.074 215.31 115.457L216.132 117.281ZM215.721 116.369C216.639 116.766 216.639 116.766 216.639 116.766C216.639 116.766 216.639 116.766 216.639 116.766C216.639 116.766 216.639 116.766 216.639 116.765C216.64 116.764 216.64 116.763 216.641 116.761C216.643 116.756 216.646 116.75 216.65 116.74C216.659 116.721 216.672 116.692 216.689 116.654C216.723 116.577 216.775 116.463 216.844 116.316C216.982 116.023 217.186 115.602 217.448 115.099C217.973 114.089 218.725 112.76 219.639 111.462C220.559 110.156 221.61 108.926 222.723 108.077C223.84 107.226 224.909 106.838 225.92 106.981L226.201 105.001C224.453 104.753 222.85 105.466 221.511 106.487C220.168 107.511 218.979 108.925 218.004 110.311C217.023 111.705 216.225 113.117 215.674 114.176C215.397 114.706 215.181 115.152 215.034 115.466C214.96 115.623 214.903 115.748 214.865 115.834C214.845 115.877 214.83 115.911 214.82 115.934C214.815 115.946 214.811 115.955 214.808 115.961C214.807 115.964 214.806 115.967 214.805 115.969C214.804 115.97 214.804 115.971 214.804 115.971C214.804 115.971 214.803 115.972 214.803 115.972C214.803 115.972 214.803 115.972 215.721 116.369ZM231.386 115.003C232.005 115.016 232.595 115.037 233.16 115.065L233.26 113.067C232.673 113.038 232.065 113.017 231.43 113.003L231.386 115.003ZM233.16 115.065C237.888 115.301 241.032 116.084 245.868 117.997L246.604 116.137C241.61 114.161 238.249 113.317 233.26 113.067L233.16 115.065ZM225.92 106.981C226.711 107.094 227.509 107.539 228.295 108.249C229.076 108.954 229.783 109.867 230.385 110.798C230.984 111.723 231.46 112.636 231.787 113.32C231.95 113.661 232.074 113.943 232.158 114.137C232.199 114.234 232.23 114.31 232.251 114.359C232.261 114.384 232.268 114.403 232.273 114.415C232.275 114.421 232.277 114.425 232.278 114.427C232.278 114.428 232.279 114.429 232.279 114.43C232.279 114.43 232.279 114.43 232.279 114.43C232.279 114.43 232.279 114.43 232.279 114.43C232.279 114.429 232.279 114.429 233.21 114.066C234.142 113.703 234.142 113.703 234.142 113.702C234.142 113.702 234.142 113.702 234.142 113.702C234.141 113.701 234.141 113.701 234.141 113.7C234.14 113.698 234.14 113.696 234.139 113.694C234.137 113.689 234.134 113.683 234.131 113.674C234.124 113.658 234.115 113.634 234.103 113.605C234.078 113.545 234.043 113.459 233.996 113.35C233.904 113.134 233.768 112.827 233.591 112.458C233.24 111.722 232.723 110.729 232.064 109.711C231.408 108.698 230.592 107.629 229.636 106.765C228.683 105.904 227.529 105.19 226.201 105.001L225.92 106.981ZM233.21 114.066C234.044 114.618 234.044 114.618 234.044 114.619C234.044 114.619 234.044 114.619 234.044 114.619C234.044 114.619 234.044 114.618 234.044 114.618C234.045 114.618 234.045 114.616 234.046 114.615C234.049 114.612 234.052 114.606 234.057 114.599C234.067 114.584 234.082 114.561 234.103 114.531C234.145 114.47 234.207 114.38 234.29 114.264C234.454 114.033 234.696 113.701 235.003 113.306C235.618 112.515 236.482 111.483 237.489 110.503C238.502 109.517 239.622 108.62 240.745 108.061C241.869 107.501 242.894 107.327 243.8 107.606L244.387 105.694C242.812 105.21 241.236 105.582 239.854 106.27C238.471 106.959 237.181 108.012 236.094 109.07C235 110.134 234.074 111.242 233.423 112.079C233.097 112.499 232.838 112.854 232.659 113.106C232.57 113.231 232.501 113.331 232.453 113.401C232.429 113.436 232.411 113.463 232.398 113.482C232.392 113.492 232.387 113.499 232.383 113.504C232.381 113.507 232.38 113.509 232.379 113.511C232.378 113.512 232.378 113.512 232.377 113.513C232.377 113.513 232.377 113.513 232.377 113.513C232.377 113.514 232.377 113.514 233.21 114.066ZM245.868 117.997C247.022 118.453 248.016 118.901 248.921 119.368L249.839 117.591C248.865 117.088 247.808 116.614 246.604 116.137L245.868 117.997ZM248.921 119.368C251.34 120.617 253.173 122.033 255.741 124.233L257.042 122.714C254.439 120.484 252.466 118.948 249.839 117.591L248.921 119.368ZM243.8 107.606C244.278 107.752 244.878 108.32 245.515 109.442C246.123 110.512 246.651 111.882 247.085 113.264C247.517 114.639 247.845 115.987 248.065 116.995C248.175 117.498 248.258 117.913 248.313 118.202C248.34 118.346 248.361 118.459 248.374 118.534C248.381 118.572 248.386 118.601 248.389 118.62C248.391 118.629 248.392 118.636 248.393 118.64C248.393 118.642 248.393 118.644 248.394 118.645C248.394 118.645 248.394 118.646 248.394 118.646C248.394 118.646 248.394 118.646 248.394 118.646C248.394 118.646 248.394 118.646 249.38 118.48C250.366 118.314 250.366 118.313 250.366 118.313C250.366 118.313 250.366 118.313 250.366 118.313C250.366 118.312 250.366 118.311 250.365 118.31C250.365 118.309 250.365 118.306 250.364 118.303C250.363 118.298 250.362 118.289 250.36 118.278C250.356 118.256 250.35 118.224 250.343 118.183C250.328 118.1 250.306 117.98 250.277 117.828C250.22 117.524 250.133 117.091 250.019 116.568C249.791 115.524 249.449 114.114 248.993 112.665C248.54 111.224 247.963 109.702 247.254 108.454C246.575 107.258 245.646 106.08 244.387 105.694L243.8 107.606ZM249.38 118.48C249.772 119.4 249.771 119.4 249.771 119.4C249.771 119.4 249.771 119.4 249.772 119.4C249.772 119.4 249.772 119.4 249.772 119.399C249.773 119.399 249.775 119.398 249.777 119.398C249.781 119.396 249.787 119.393 249.796 119.389C249.813 119.382 249.84 119.371 249.875 119.356C249.945 119.327 250.05 119.284 250.184 119.23C250.453 119.122 250.84 118.968 251.314 118.791C252.262 118.435 253.544 117.984 254.892 117.6C256.248 117.214 257.629 116.907 258.785 116.818C259.363 116.774 259.849 116.787 260.229 116.855C260.616 116.924 260.821 117.036 260.921 117.129L262.272 115.654C261.792 115.215 261.181 114.994 260.582 114.886C259.977 114.778 259.308 114.772 258.632 114.824C257.28 114.927 255.752 115.275 254.344 115.677C252.927 116.08 251.59 116.551 250.611 116.918C250.12 117.102 249.717 117.262 249.435 117.375C249.294 117.432 249.184 117.478 249.108 117.509C249.07 117.525 249.041 117.537 249.02 117.546C249.01 117.55 249.003 117.553 248.997 117.556C248.994 117.557 248.992 117.558 248.991 117.558C248.99 117.559 248.989 117.559 248.989 117.559C248.989 117.559 248.988 117.559 248.988 117.559C248.988 117.56 248.988 117.56 249.38 118.48ZM255.741 124.233C258.068 126.227 259.591 127.717 260.904 129.433L262.493 128.219C261.056 126.34 259.412 124.745 257.042 122.714L255.741 124.233ZM260.904 129.433C261.891 130.726 262.777 132.169 263.794 134.089L265.562 133.152C264.514 131.176 263.57 129.629 262.493 128.219L260.904 129.433ZM260.921 117.129C261.468 117.629 261.826 118.492 261.973 119.695C262.118 120.878 262.041 122.246 261.859 123.574C261.679 124.895 261.4 126.135 261.165 127.047C261.048 127.502 260.942 127.873 260.867 128.128C260.829 128.256 260.799 128.355 260.778 128.421C260.768 128.453 260.76 128.478 260.755 128.494C260.752 128.502 260.75 128.508 260.749 128.512C260.749 128.513 260.748 128.515 260.748 128.515C260.748 128.516 260.748 128.516 260.748 128.516C260.748 128.516 260.748 128.516 260.748 128.516C260.748 128.516 260.748 128.515 261.698 128.826C262.649 129.137 262.649 129.137 262.649 129.137C262.649 129.136 262.649 129.136 262.649 129.136C262.649 129.135 262.65 129.135 262.65 129.134C262.65 129.132 262.651 129.13 262.652 129.127C262.654 129.122 262.656 129.114 262.66 129.104C262.666 129.083 262.675 129.054 262.687 129.017C262.71 128.942 262.743 128.834 262.784 128.696C262.866 128.421 262.978 128.027 263.102 127.546C263.349 126.585 263.646 125.266 263.841 123.846C264.035 122.433 264.133 120.875 263.958 119.451C263.786 118.047 263.329 116.622 262.272 115.654L260.921 117.129ZM261.698 128.826C261.856 129.814 261.855 129.814 261.855 129.814C261.855 129.814 261.855 129.814 261.855 129.814C261.855 129.814 261.855 129.814 261.855 129.814C261.855 129.814 261.856 129.814 261.857 129.814C261.859 129.813 261.863 129.813 261.869 129.812C261.881 129.81 261.899 129.807 261.925 129.804C261.975 129.797 262.051 129.786 262.151 129.774C262.35 129.75 262.639 129.719 262.993 129.694C263.704 129.642 264.66 129.613 265.658 129.697C266.663 129.782 267.659 129.977 268.479 130.344C269.291 130.707 269.871 131.209 270.176 131.889L272.001 131.07C271.437 129.814 270.408 129.016 269.296 128.519C268.193 128.025 266.95 127.799 265.825 127.704C264.692 127.609 263.627 127.643 262.849 127.699C262.458 127.727 262.137 127.761 261.91 127.789C261.797 127.802 261.707 127.814 261.645 127.823C261.613 127.828 261.589 127.831 261.571 127.834C261.563 127.835 261.556 127.836 261.551 127.837C261.548 127.838 261.546 127.838 261.544 127.838C261.544 127.838 261.543 127.838 261.542 127.838C261.542 127.839 261.542 127.839 261.542 127.839C261.541 127.839 261.541 127.839 261.698 128.826ZM263.794 134.089C265.044 136.445 265.917 138.535 266.572 140.55L268.474 139.932C267.781 137.8 266.861 135.604 265.562 133.152L263.794 134.089ZM266.572 140.55C267.983 144.888 268.388 148.88 269.312 154.614L271.286 154.296C270.385 148.701 269.948 144.464 268.474 139.932L266.572 140.55ZM270.176 131.889C270.332 132.236 270.342 132.834 270.085 133.713C269.838 134.557 269.395 135.492 268.891 136.386C268.391 137.274 267.851 138.085 267.434 138.677C267.226 138.972 267.05 139.211 266.927 139.374C266.866 139.456 266.818 139.519 266.785 139.561C266.769 139.582 266.757 139.597 266.749 139.607C266.745 139.612 266.742 139.616 266.741 139.618C266.74 139.619 266.739 139.62 266.739 139.62C266.739 139.621 266.739 139.621 266.739 139.621C266.739 139.621 266.739 139.621 266.739 139.621C266.739 139.621 266.739 139.621 267.523 140.241C268.308 140.861 268.308 140.861 268.308 140.861C268.308 140.861 268.308 140.86 268.308 140.86C268.309 140.86 268.309 140.859 268.309 140.859C268.31 140.858 268.311 140.856 268.313 140.855C268.316 140.851 268.32 140.846 268.325 140.839C268.335 140.826 268.35 140.808 268.368 140.784C268.405 140.735 268.459 140.666 268.526 140.577C268.659 140.399 268.848 140.144 269.069 139.829C269.511 139.202 270.09 138.332 270.634 137.369C271.173 136.412 271.697 135.326 272.005 134.274C272.302 133.255 272.454 132.08 272.001 131.07L270.176 131.889ZM267.523 140.241C267.354 141.226 267.354 141.226 267.354 141.226C267.354 141.226 267.354 141.226 267.354 141.226C267.354 141.226 267.354 141.226 267.354 141.226C267.355 141.226 267.356 141.227 267.357 141.227C267.36 141.227 267.366 141.228 267.373 141.23C267.387 141.232 267.409 141.236 267.439 141.242C267.498 141.253 267.587 141.27 267.702 141.293C267.932 141.34 268.265 141.412 268.668 141.511C269.478 141.71 270.559 142.016 271.662 142.444C272.772 142.874 273.862 143.411 274.714 144.059C275.573 144.711 276.1 145.404 276.266 146.126L278.215 145.679C277.903 144.32 276.976 143.265 275.924 142.466C274.865 141.662 273.585 141.044 272.385 140.579C271.178 140.111 270.009 139.782 269.146 139.569C268.713 139.463 268.354 139.385 268.101 139.334C267.975 139.308 267.875 139.289 267.805 139.276C267.77 139.269 267.743 139.264 267.724 139.261C267.715 139.259 267.707 139.258 267.702 139.257C267.699 139.256 267.697 139.256 267.695 139.256C267.695 139.256 267.694 139.255 267.693 139.255C267.693 139.255 267.693 139.255 267.693 139.255C267.692 139.255 267.692 139.255 267.523 140.241ZM276.266 146.126C276.433 146.854 276.242 147.654 275.714 148.528C275.186 149.404 274.375 150.26 273.485 151.027C272.603 151.788 271.684 152.428 270.981 152.879C270.631 153.104 270.338 153.28 270.134 153.399C270.032 153.458 269.953 153.503 269.9 153.533C269.873 153.548 269.853 153.559 269.841 153.566C269.834 153.569 269.83 153.572 269.827 153.573C269.826 153.574 269.825 153.574 269.824 153.575C269.824 153.575 269.824 153.575 269.824 153.575C269.824 153.575 269.824 153.575 269.824 153.575C269.824 153.575 269.825 153.575 270.299 154.455C270.774 155.335 270.774 155.335 270.774 155.335C270.774 155.335 270.775 155.335 270.775 155.334C270.775 155.334 270.776 155.334 270.777 155.333C270.778 155.333 270.78 155.332 270.783 155.33C270.788 155.328 270.794 155.324 270.803 155.319C270.82 155.31 270.845 155.296 270.876 155.279C270.939 155.244 271.028 155.193 271.141 155.127C271.367 154.996 271.685 154.804 272.062 154.562C272.815 154.079 273.816 153.383 274.792 152.541C275.76 151.705 276.746 150.691 277.427 149.561C278.109 148.431 278.539 147.091 278.215 145.679L276.266 146.126ZM270.299 154.455C270.006 155.411 270.005 155.411 270.005 155.411C270.005 155.411 270.005 155.411 270.005 155.411C270.005 155.411 270.005 155.411 270.006 155.411C270.006 155.411 270.007 155.411 270.008 155.412C270.011 155.412 270.015 155.414 270.02 155.415C270.032 155.419 270.05 155.425 270.073 155.432C270.121 155.447 270.192 155.47 270.284 155.501C270.467 155.562 270.733 155.653 271.055 155.771C271.702 156.008 272.569 156.35 273.459 156.775C274.355 157.202 275.244 157.698 275.951 158.235C276.682 158.79 277.096 159.297 277.234 159.71L279.131 159.076C278.801 158.086 277.995 157.275 277.16 156.642C276.302 155.99 275.278 155.426 274.32 154.97C273.357 154.51 272.428 154.144 271.743 153.893C271.4 153.767 271.115 153.67 270.915 153.603C270.815 153.57 270.736 153.544 270.681 153.527C270.654 153.518 270.633 153.511 270.618 153.507C270.61 153.504 270.604 153.503 270.6 153.501C270.598 153.501 270.596 153.5 270.595 153.5C270.595 153.499 270.594 153.499 270.594 153.499C270.593 153.499 270.593 153.499 270.593 153.499C270.593 153.499 270.593 153.499 270.299 154.455ZM269.312 154.614C270.172 159.952 270.187 163.105 270.77 167.892L272.756 167.65C272.207 163.147 272.144 159.618 271.286 154.296L269.312 154.614ZM270.77 167.892C270.885 168.834 271.021 169.83 271.19 170.905L273.166 170.595C273.001 169.544 272.868 168.571 272.756 167.65L270.77 167.892ZM277.234 159.71C277.362 160.093 277.274 160.69 276.77 161.546C276.283 162.371 275.519 163.247 274.676 164.068C273.842 164.881 272.969 165.603 272.301 166.124C271.968 166.384 271.689 166.592 271.494 166.734C271.396 166.805 271.32 166.86 271.269 166.896C271.243 166.914 271.224 166.928 271.211 166.937C271.205 166.941 271.2 166.944 271.198 166.946C271.196 166.947 271.195 166.948 271.195 166.948C271.195 166.948 271.194 166.948 271.194 166.948C271.194 166.948 271.194 166.948 271.194 166.948C271.194 166.948 271.195 166.948 271.763 167.771C272.331 168.594 272.331 168.594 272.332 168.594C272.332 168.594 272.332 168.593 272.332 168.593C272.332 168.593 272.333 168.593 272.334 168.592C272.335 168.591 272.337 168.59 272.339 168.588C272.343 168.585 272.349 168.581 272.357 168.576C272.373 168.565 272.396 168.549 272.425 168.528C272.483 168.487 272.566 168.427 272.672 168.351C272.882 168.197 273.179 167.976 273.532 167.701C274.235 167.152 275.168 166.381 276.072 165.5C276.968 164.627 277.876 163.608 278.492 162.562C279.091 161.547 279.538 160.296 279.131 159.076L277.234 159.71ZM271.763 167.771C271.34 168.677 271.34 168.677 271.34 168.677C271.34 168.677 271.339 168.677 271.34 168.677C271.34 168.677 271.34 168.677 271.34 168.677C271.341 168.677 271.342 168.678 271.343 168.679C271.346 168.68 271.35 168.682 271.357 168.685C271.369 168.691 271.388 168.7 271.413 168.712C271.463 168.736 271.538 168.772 271.635 168.819C271.828 168.914 272.107 169.053 272.445 169.229C273.123 169.582 274.032 170.079 274.966 170.659C275.905 171.242 276.845 171.894 277.596 172.554C278.376 173.239 278.832 173.83 278.978 174.268L280.875 173.635C280.553 172.671 279.754 171.788 278.916 171.051C278.049 170.29 277.006 169.572 276.021 168.96C275.031 168.345 274.075 167.823 273.368 167.455C273.014 167.271 272.721 167.125 272.515 167.024C272.413 166.973 272.331 166.934 272.276 166.907C272.248 166.894 272.226 166.884 272.211 166.877C272.203 166.873 272.197 166.87 272.193 166.868C272.191 166.867 272.19 166.867 272.188 166.866C272.188 166.866 272.187 166.866 272.187 166.865C272.187 166.865 272.186 166.865 272.186 166.865C272.186 166.865 272.186 166.865 271.763 167.771ZM271.19 170.905C271.866 175.214 272.262 178.439 273.023 181.933L274.978 181.506C274.233 178.09 273.854 174.984 273.166 170.595L271.19 170.905ZM273.023 181.933C273.44 183.842 273.966 185.836 274.707 188.15L276.612 187.54C275.889 185.285 275.38 183.352 274.978 181.506L273.023 181.933ZM278.978 174.268C279.173 174.85 279.069 175.507 278.653 176.265C278.232 177.03 277.544 177.797 276.764 178.498C275.993 179.192 275.177 179.782 274.548 180.201C274.235 180.409 273.972 180.573 273.789 180.684C273.698 180.739 273.626 180.781 273.579 180.809C273.555 180.822 273.537 180.833 273.526 180.839C273.52 180.842 273.516 180.844 273.514 180.846C273.513 180.846 273.512 180.847 273.512 180.847C273.512 180.847 273.511 180.847 273.512 180.847C273.512 180.847 273.512 180.847 273.512 180.847C273.512 180.847 273.512 180.847 274 181.719C274.489 182.592 274.489 182.592 274.489 182.592C274.49 182.592 274.49 182.592 274.49 182.591C274.491 182.591 274.491 182.591 274.492 182.59C274.493 182.59 274.495 182.589 274.497 182.587C274.502 182.585 274.508 182.581 274.516 182.577C274.532 182.568 274.554 182.555 274.583 182.538C274.64 182.505 274.722 182.457 274.824 182.395C275.028 182.272 275.316 182.092 275.657 181.865C276.335 181.413 277.235 180.764 278.102 179.985C278.96 179.213 279.832 178.272 280.405 177.229C280.982 176.179 281.307 174.927 280.875 173.635L278.978 174.268ZM274 181.719C273.869 182.711 273.869 182.711 273.869 182.711C273.869 182.711 273.868 182.711 273.868 182.711C273.868 182.711 273.868 182.711 273.869 182.711C273.869 182.711 273.87 182.711 273.871 182.711C273.874 182.711 273.878 182.712 273.884 182.713C273.897 182.715 273.916 182.717 273.942 182.721C273.993 182.729 274.071 182.74 274.171 182.757C274.371 182.789 274.661 182.839 275.013 182.909C275.719 183.05 276.664 183.269 277.63 183.582C278.604 183.898 279.558 184.297 280.308 184.781C281.073 185.275 281.503 185.779 281.647 186.259L283.562 185.684C283.221 184.545 282.332 183.708 281.393 183.101C280.439 182.484 279.303 182.022 278.247 181.68C277.184 181.335 276.159 181.098 275.404 180.948C275.025 180.872 274.711 180.818 274.49 180.782C274.379 180.764 274.292 180.751 274.231 180.742C274.201 180.738 274.177 180.734 274.16 180.732C274.152 180.731 274.146 180.73 274.141 180.729C274.138 180.729 274.137 180.729 274.135 180.729C274.134 180.728 274.134 180.728 274.133 180.728C274.133 180.728 274.133 180.728 274.133 180.728C274.132 180.728 274.132 180.728 274 181.719ZM274.707 188.15C275.504 190.637 276.2 192.663 276.981 194.594L278.835 193.845C278.082 191.981 277.403 190.009 276.612 187.54L274.707 188.15ZM276.981 194.594C277.992 197.093 279.136 199.412 280.808 202.361L282.548 201.374C280.908 198.482 279.805 196.243 278.835 193.845L276.981 194.594ZM281.647 186.259C281.754 186.618 281.686 187.21 281.314 188.051C280.957 188.859 280.394 189.733 279.775 190.558C279.161 191.378 278.517 192.117 278.025 192.653C277.779 192.92 277.573 193.135 277.429 193.283C277.358 193.356 277.301 193.413 277.264 193.45C277.245 193.469 277.231 193.483 277.222 193.492C277.217 193.497 277.214 193.5 277.212 193.502C277.211 193.503 277.21 193.504 277.21 193.504C277.21 193.504 277.209 193.504 277.209 193.504C277.209 193.504 277.21 193.504 277.21 193.504C277.21 193.504 277.21 193.504 277.908 194.22C278.607 194.935 278.607 194.935 278.607 194.935C278.607 194.935 278.607 194.934 278.608 194.934C278.608 194.934 278.608 194.934 278.609 194.933C278.61 194.932 278.611 194.931 278.613 194.929C278.616 194.926 278.621 194.921 278.627 194.916C278.638 194.904 278.655 194.887 278.677 194.866C278.72 194.823 278.782 194.76 278.86 194.68C279.017 194.52 279.237 194.29 279.498 194.006C280.019 193.438 280.709 192.647 281.375 191.758C282.036 190.876 282.7 189.864 283.144 188.86C283.573 187.89 283.879 186.742 283.562 185.684L281.647 186.259ZM277.908 194.22C277.788 195.212 277.788 195.212 277.788 195.212C277.788 195.212 277.788 195.212 277.788 195.212C277.789 195.212 277.789 195.212 277.789 195.212C277.79 195.213 277.791 195.213 277.793 195.213C277.797 195.213 277.802 195.214 277.81 195.215C277.825 195.217 277.848 195.22 277.877 195.223C277.937 195.231 278.025 195.242 278.138 195.257C278.364 195.286 278.688 195.33 279.08 195.387C279.865 195.5 280.916 195.665 281.987 195.868C283.064 196.072 284.136 196.311 284.972 196.571C285.393 196.702 285.724 196.828 285.957 196.945C286.233 197.084 286.219 197.135 286.159 197.034L287.877 196.009C287.624 195.585 287.18 195.321 286.853 195.157C286.482 194.971 286.035 194.807 285.565 194.661C284.621 194.368 283.464 194.112 282.36 193.903C281.25 193.692 280.169 193.524 279.366 193.408C278.964 193.349 278.631 193.304 278.398 193.274C278.281 193.259 278.19 193.247 278.127 193.239C278.095 193.235 278.071 193.232 278.055 193.23C278.046 193.229 278.04 193.228 278.036 193.228C278.033 193.227 278.032 193.227 278.03 193.227C278.03 193.227 278.029 193.227 278.029 193.227C278.029 193.227 278.029 193.227 278.029 193.227C278.028 193.227 278.028 193.227 277.908 194.22ZM280.808 202.361C281.714 203.957 282.482 205.262 283.28 206.494L284.958 205.407C284.192 204.223 283.446 202.958 282.548 201.374L280.808 202.361ZM283.28 206.494C284.355 208.153 285.477 209.666 287.055 211.583L288.599 210.311C287.058 208.439 285.984 206.989 284.958 205.407L283.28 206.494ZM286.159 197.034C286.485 197.58 286.569 198.311 286.413 199.22C286.256 200.126 285.878 201.103 285.415 202.029C284.955 202.949 284.433 203.778 284.023 204.38C283.819 204.679 283.645 204.92 283.523 205.084C283.462 205.166 283.414 205.229 283.382 205.27C283.366 205.291 283.354 205.306 283.346 205.316C283.342 205.321 283.34 205.324 283.338 205.326C283.337 205.327 283.337 205.328 283.337 205.328C283.337 205.328 283.337 205.328 283.337 205.328C283.337 205.328 283.337 205.328 283.337 205.328C283.337 205.328 283.337 205.328 284.119 205.951C284.902 206.573 284.902 206.573 284.902 206.573C284.902 206.573 284.902 206.573 284.902 206.572C284.903 206.572 284.903 206.571 284.904 206.571C284.905 206.57 284.906 206.568 284.907 206.566C284.911 206.562 284.915 206.557 284.92 206.55C284.931 206.536 284.946 206.517 284.965 206.492C285.004 206.442 285.059 206.37 285.127 206.278C285.264 206.095 285.454 205.831 285.676 205.505C286.119 204.856 286.692 203.948 287.204 202.924C287.712 201.906 288.181 200.733 288.383 199.56C288.585 198.392 288.538 197.117 287.877 196.009L286.159 197.034ZM284.119 205.951C284.327 206.929 284.327 206.929 284.327 206.929C284.327 206.929 284.326 206.929 284.326 206.929C284.327 206.929 284.327 206.929 284.327 206.929C284.327 206.929 284.328 206.928 284.33 206.928C284.332 206.928 284.337 206.927 284.343 206.925C284.355 206.923 284.374 206.919 284.399 206.914C284.449 206.904 284.524 206.889 284.622 206.871C284.816 206.834 285.098 206.784 285.442 206.729C286.133 206.621 287.063 206.498 288.035 206.441C289.015 206.382 289.993 206.393 290.797 206.529C291.646 206.674 292.073 206.922 292.234 207.137L293.834 205.936C293.193 205.082 292.105 204.723 291.132 204.558C290.114 204.384 288.964 204.382 287.916 204.444C286.859 204.507 285.861 204.639 285.131 204.754C284.765 204.812 284.463 204.866 284.252 204.905C284.146 204.925 284.063 204.942 284.005 204.953C283.976 204.959 283.954 204.964 283.938 204.967C283.93 204.968 283.924 204.97 283.92 204.971C283.917 204.971 283.916 204.971 283.914 204.972C283.914 204.972 283.913 204.972 283.913 204.972C283.913 204.972 283.912 204.972 283.912 204.972C283.912 204.972 283.912 204.972 284.119 205.951ZM287.055 211.583C288.716 213.6 289.922 214.921 291.515 216.442L292.896 214.996C291.373 213.541 290.222 212.282 288.599 210.311L287.055 211.583ZM291.515 216.442C292.058 216.961 292.643 217.501 293.305 218.098L294.645 216.613C293.992 216.024 293.421 215.498 292.896 214.996L291.515 216.442ZM292.234 207.137C292.616 207.645 292.812 208.354 292.835 209.235C292.857 210.11 292.705 211.07 292.476 211.986C292.248 212.895 291.954 213.725 291.715 214.329C291.596 214.63 291.492 214.873 291.418 215.038C291.381 215.121 291.352 215.184 291.333 215.226C291.323 215.247 291.316 215.262 291.311 215.272C291.309 215.276 291.307 215.28 291.307 215.282C291.306 215.282 291.306 215.283 291.306 215.283C291.306 215.283 291.306 215.283 291.306 215.283C291.306 215.283 291.306 215.283 291.306 215.283C291.306 215.283 291.306 215.283 292.206 215.719C293.105 216.156 293.105 216.156 293.106 216.155C293.106 216.155 293.106 216.155 293.106 216.155C293.106 216.154 293.106 216.154 293.107 216.153C293.107 216.152 293.108 216.15 293.109 216.148C293.111 216.144 293.114 216.138 293.117 216.131C293.124 216.117 293.134 216.097 293.146 216.071C293.17 216.02 293.203 215.946 293.245 215.852C293.329 215.664 293.444 215.395 293.575 215.065C293.835 214.406 294.161 213.49 294.416 212.471C294.67 211.457 294.863 210.305 294.834 209.184C294.805 208.067 294.554 206.895 293.834 205.936L292.234 207.137ZM292.206 215.719C292.498 216.676 292.498 216.676 292.498 216.676C292.498 216.676 292.498 216.676 292.498 216.676C292.498 216.676 292.498 216.676 292.498 216.675C292.499 216.675 292.5 216.675 292.501 216.675C292.504 216.674 292.509 216.672 292.515 216.67C292.528 216.667 292.547 216.661 292.572 216.653C292.623 216.638 292.698 216.616 292.796 216.588C292.991 216.533 293.272 216.454 293.614 216.365C294.3 216.185 295.223 215.964 296.179 215.791C297.145 215.617 298.103 215.5 298.873 215.513C299.259 215.52 299.557 215.558 299.77 215.617C299.991 215.679 300.032 215.739 300.017 215.721L301.554 214.441C301.21 214.027 300.736 213.811 300.308 213.691C299.871 213.569 299.386 213.521 298.906 213.513C297.944 213.498 296.839 213.64 295.824 213.823C294.8 214.008 293.825 214.242 293.108 214.43C292.749 214.524 292.452 214.606 292.245 214.666C292.141 214.695 292.06 214.719 292.003 214.736C291.975 214.744 291.953 214.751 291.938 214.755C291.931 214.758 291.925 214.76 291.92 214.761C291.918 214.761 291.917 214.762 291.916 214.762C291.915 214.762 291.915 214.763 291.914 214.763C291.914 214.763 291.914 214.763 291.914 214.763C291.913 214.763 291.913 214.763 292.206 215.719ZM298.855 222.561C299.142 222.776 299.417 222.981 299.682 223.178L300.875 221.573C300.612 221.377 300.338 221.173 300.052 220.959L298.855 222.561ZM299.682 223.178C302.043 224.933 303.65 226.069 306.432 227.695L307.441 225.969C304.745 224.392 303.202 223.302 300.875 221.573L299.682 223.178ZM300.017 215.721C300.283 216.04 300.446 216.527 300.479 217.195C300.511 217.856 300.409 218.601 300.243 219.328C300.078 220.047 299.858 220.71 299.677 221.196C299.588 221.438 299.509 221.633 299.453 221.765C299.425 221.832 299.403 221.882 299.389 221.915C299.382 221.932 299.376 221.944 299.373 221.951C299.371 221.955 299.37 221.957 299.37 221.959C299.369 221.959 299.369 221.96 299.369 221.96C299.369 221.96 299.369 221.96 299.369 221.96C299.369 221.96 299.369 221.96 299.369 221.959C299.369 221.959 299.369 221.959 300.279 222.375C301.188 222.791 301.188 222.791 301.188 222.791C301.188 222.791 301.188 222.791 301.188 222.79C301.189 222.79 301.189 222.79 301.189 222.789C301.19 222.788 301.19 222.786 301.191 222.784C301.193 222.781 301.195 222.776 301.198 222.77C301.203 222.758 301.211 222.741 301.22 222.72C301.239 222.677 301.265 222.616 301.298 222.538C301.363 222.384 301.452 222.163 301.552 221.892C301.753 221.353 302.002 220.604 302.192 219.774C302.381 218.951 302.52 218.01 302.476 217.098C302.432 216.192 302.202 215.219 301.554 214.441L300.017 215.721ZM300.279 222.375C300.859 223.19 300.859 223.19 300.859 223.19C300.859 223.19 300.859 223.19 300.859 223.19C300.858 223.19 300.858 223.19 300.858 223.19C300.859 223.19 300.859 223.19 300.86 223.189C300.861 223.188 300.863 223.187 300.867 223.184C300.874 223.179 300.886 223.171 300.902 223.16C300.934 223.138 300.983 223.104 301.048 223.062C301.177 222.976 301.366 222.854 301.602 222.713C302.076 222.429 302.724 222.076 303.431 221.783C304.147 221.487 304.875 221.273 305.521 221.23C306.162 221.187 306.631 221.315 306.963 221.591L308.239 220.051C307.383 219.341 306.343 219.171 305.388 219.234C304.438 219.298 303.484 219.596 302.666 219.935C301.84 220.277 301.103 220.682 300.575 220.997C300.31 221.156 300.095 221.294 299.944 221.394C299.869 221.444 299.809 221.484 299.768 221.513C299.747 221.527 299.731 221.538 299.719 221.546C299.713 221.55 299.709 221.554 299.705 221.556C299.703 221.557 299.702 221.558 299.701 221.559C299.7 221.56 299.7 221.56 299.699 221.56C299.699 221.56 299.699 221.561 299.699 221.561C299.698 221.561 299.698 221.561 300.279 222.375ZM306.432 227.695C307.028 228.044 307.57 228.369 308.091 228.678L309.113 226.959C308.598 226.653 308.046 226.322 307.441 225.969L306.432 227.695ZM308.091 228.678C310.192 229.927 311.869 230.892 314.646 231.787L315.26 229.883C312.701 229.059 311.179 228.188 309.113 226.959L308.091 228.678ZM306.963 221.591C307.078 221.686 307.272 221.999 307.429 222.675C307.574 223.303 307.648 224.067 307.676 224.833C307.704 225.592 307.687 226.318 307.662 226.857C307.649 227.126 307.635 227.346 307.624 227.498C307.619 227.573 307.614 227.632 307.611 227.671C307.609 227.69 307.608 227.705 307.607 227.714C307.607 227.719 307.606 227.722 307.606 227.724C307.606 227.725 307.606 227.726 307.606 227.726C307.606 227.726 307.606 227.726 307.606 227.726C307.606 227.726 307.606 227.726 307.606 227.726C307.606 227.726 307.606 227.726 308.602 227.818C309.597 227.911 309.597 227.91 309.597 227.91C309.597 227.91 309.597 227.91 309.598 227.91C309.598 227.909 309.598 227.909 309.598 227.908C309.598 227.907 309.598 227.906 309.598 227.904C309.598 227.901 309.599 227.896 309.599 227.89C309.6 227.877 309.602 227.859 309.604 227.837C309.608 227.791 309.613 227.725 309.619 227.642C309.631 227.475 309.646 227.238 309.66 226.95C309.686 226.375 309.706 225.591 309.675 224.759C309.644 223.934 309.564 223.028 309.378 222.225C309.203 221.47 308.89 220.591 308.239 220.051L306.963 221.591ZM237.063 183.434C238.323 186.525 239.259 189.155 239.961 191.695L241.889 191.162C241.159 188.523 240.193 185.816 238.916 182.679L237.063 183.434ZM240.925 191.428C240.76 190.442 240.76 190.442 240.76 190.442C240.76 190.442 240.76 190.442 240.76 190.442C240.76 190.442 240.76 190.442 240.76 190.442C240.76 190.442 240.759 190.442 240.759 190.442C240.758 190.442 240.756 190.443 240.753 190.443C240.748 190.444 240.741 190.445 240.731 190.447C240.711 190.45 240.682 190.455 240.644 190.461C240.568 190.474 240.456 190.492 240.316 190.515C240.034 190.56 239.637 190.624 239.173 190.695C238.243 190.839 237.054 191.016 236 191.148L236.249 193.133C237.331 192.997 238.543 192.817 239.479 192.672C239.948 192.599 240.35 192.535 240.635 192.489C240.778 192.466 240.891 192.447 240.969 192.434C241.007 192.428 241.037 192.423 241.058 192.42C241.068 192.418 241.076 192.417 241.081 192.416C241.084 192.415 241.086 192.415 241.087 192.415C241.088 192.415 241.088 192.415 241.089 192.415C241.089 192.415 241.089 192.415 241.089 192.415C241.089 192.415 241.089 192.415 241.089 192.415C241.089 192.415 241.089 192.415 240.925 191.428ZM236 191.148C234.766 191.303 233.935 191.215 233.209 190.95C232.46 190.676 231.736 190.184 230.749 189.369L229.476 190.911C230.5 191.757 231.44 192.433 232.523 192.828C233.629 193.233 234.798 193.315 236.249 193.133L236 191.148ZM230.749 189.369C229.205 188.095 227.524 186.752 226.093 185.658C224.699 184.593 223.447 183.691 222.809 183.372L221.915 185.162C222.346 185.377 223.433 186.143 224.879 187.247C226.286 188.323 227.947 189.649 229.476 190.911L230.749 189.369ZM222.809 183.372C220.992 182.465 219.11 183.147 218.222 184.339L219.825 185.534C220.166 185.076 221.011 184.71 221.915 185.162L222.809 183.372ZM218.222 184.339C217.081 185.868 217.363 187.776 218.553 189.082L220.032 187.736C219.39 187.031 219.339 186.186 219.825 185.534L218.222 184.339ZM218.553 189.082C219.006 189.581 219.617 190.064 220.273 190.202C220.627 190.276 221.101 190.266 221.519 189.957C221.93 189.655 222.097 189.206 222.152 188.816L220.172 188.535C220.161 188.613 220.161 188.474 220.334 188.347C220.514 188.214 220.679 188.243 220.683 188.244C220.686 188.245 220.668 188.241 220.627 188.222C220.587 188.203 220.534 188.174 220.47 188.13C220.341 188.041 220.189 187.909 220.032 187.736L218.553 189.082ZM222.152 188.816C222.135 188.938 222.034 189.323 221.601 189.496C221.262 189.631 220.997 189.51 220.99 189.507C220.937 189.485 220.995 189.503 221.198 189.689C221.555 190.017 222.074 190.594 222.678 191.329C223.875 192.787 225.288 194.724 226.2 196.156L227.887 195.081C226.927 193.575 225.466 191.573 224.224 190.06C223.608 189.31 223.016 188.643 222.55 188.216C222.342 188.025 222.061 187.788 221.763 187.663C221.634 187.608 221.27 187.474 220.858 187.639C220.354 187.841 220.206 188.296 220.172 188.535L222.152 188.816ZM226.2 196.156C227.501 198.198 229.19 200.157 230.753 201.706C232.289 203.23 233.796 204.448 234.749 204.924L235.642 203.134C234.992 202.81 233.674 201.786 232.161 200.286C230.673 198.812 229.088 196.966 227.887 195.081L226.2 196.156ZM241.774 202.905C241.842 203.868 241.898 204.875 241.945 205.939L243.943 205.851C243.895 204.773 243.838 203.748 243.769 202.765L241.774 202.905ZM234.749 204.924C235.53 205.313 236.492 205.356 237.357 205.29C238.252 205.222 239.198 205.023 240.042 204.799C240.891 204.573 241.666 204.315 242.227 204.113C242.508 204.012 242.737 203.924 242.898 203.862C242.978 203.83 243.041 203.805 243.085 203.787C243.106 203.779 243.123 203.772 243.135 203.767C243.141 203.764 243.146 203.762 243.149 203.761C243.151 203.76 243.152 203.76 243.153 203.759C243.154 203.759 243.154 203.759 243.155 203.759C243.155 203.759 243.155 203.759 243.155 203.759C243.155 203.759 243.156 203.759 242.772 202.835C242.388 201.912 242.388 201.912 242.388 201.912C242.388 201.912 242.388 201.912 242.388 201.912C242.388 201.912 242.388 201.912 242.388 201.912C242.387 201.912 242.387 201.912 242.386 201.913C242.384 201.913 242.381 201.915 242.377 201.916C242.368 201.92 242.354 201.926 242.335 201.933C242.298 201.948 242.242 201.97 242.17 201.999C242.024 202.056 241.812 202.137 241.55 202.231C241.025 202.42 240.306 202.659 239.529 202.866C238.746 203.074 237.931 203.24 237.205 203.296C236.449 203.353 235.931 203.278 235.642 203.134L234.749 204.924ZM241.098 192.413L243.91 191.919L243.564 189.949L240.752 190.443L241.098 192.413ZM243.172 203.751L247.483 201.867L246.681 200.034L242.371 201.919L243.172 203.751ZM240.507 242.292C238.278 241.778 236.323 241.24 234.709 240.741L234.119 242.652C235.78 243.165 237.782 243.716 240.057 244.24L240.507 242.292ZM240.282 243.266C239.282 243.232 239.282 243.232 239.282 243.232C239.282 243.232 239.282 243.232 239.282 243.232C239.282 243.232 239.282 243.232 239.282 243.232C239.282 243.233 239.282 243.234 239.282 243.235C239.282 243.237 239.282 243.24 239.282 243.244C239.282 243.253 239.281 243.266 239.281 243.283C239.279 243.319 239.277 243.371 239.274 243.439C239.268 243.576 239.259 243.775 239.246 244.024C239.219 244.522 239.175 245.218 239.108 246.006C238.973 247.597 238.748 249.508 238.391 250.935L240.331 251.421C240.729 249.83 240.964 247.785 241.101 246.175C241.17 245.362 241.215 244.646 241.243 244.132C241.257 243.875 241.266 243.668 241.272 243.525C241.275 243.454 241.278 243.398 241.279 243.36C241.28 243.341 241.28 243.326 241.281 243.316C241.281 243.311 241.281 243.307 241.281 243.304C241.281 243.303 241.281 243.302 241.281 243.301C241.281 243.301 241.281 243.301 241.281 243.3C241.281 243.3 241.281 243.3 241.281 243.3C241.281 243.3 241.281 243.3 240.282 243.266ZM240.295 263.388C243.302 263.816 247.821 263.072 252.256 262.169L251.857 260.209C247.35 261.127 243.18 261.778 240.577 261.408L240.295 263.388ZM252.256 262.169C253.97 261.82 256.186 261.309 258.188 260.64C259.189 260.306 260.157 259.926 260.991 259.498C261.811 259.077 262.575 258.572 263.099 257.961L261.58 256.66C261.302 256.983 260.805 257.345 260.078 257.719C259.365 258.085 258.5 258.428 257.555 258.743C255.665 259.374 253.54 259.867 251.857 260.209L252.256 262.169ZM263.099 257.961C264.387 256.456 265.028 254.899 265.33 252.775L263.35 252.493C263.093 254.303 262.582 255.489 261.58 256.66L263.099 257.961ZM279.508 245.216C273.351 245.561 269.244 245.409 264.665 245.116L264.537 247.112C269.169 247.409 273.36 247.564 279.62 247.213L279.508 245.216ZM265.33 252.775C265.539 251.309 265.605 249.628 265.62 248.334C265.628 247.683 265.623 247.121 265.617 246.721C265.613 246.521 265.609 246.361 265.606 246.251C265.605 246.196 265.603 246.153 265.602 246.123C265.602 246.109 265.601 246.097 265.601 246.089C265.601 246.085 265.601 246.082 265.601 246.08C265.601 246.079 265.601 246.078 265.601 246.078C265.601 246.077 265.601 246.077 265.601 246.077C265.601 246.077 265.601 246.077 265.601 246.077C265.601 246.077 265.601 246.076 264.601 246.114C263.602 246.151 263.602 246.151 263.602 246.151C263.602 246.151 263.602 246.151 263.602 246.151C263.602 246.151 263.602 246.151 263.602 246.151C263.602 246.151 263.602 246.152 263.602 246.152C263.602 246.154 263.602 246.156 263.602 246.159C263.603 246.166 263.603 246.176 263.603 246.189C263.604 246.215 263.606 246.255 263.607 246.307C263.61 246.41 263.614 246.563 263.617 246.755C263.623 247.139 263.628 247.682 263.621 248.31C263.605 249.575 263.541 251.154 263.35 252.493L265.33 252.775ZM241.282 243.288L241.422 237.041L239.423 236.996L239.282 243.243L241.282 243.288ZM265.599 246.046L265.198 240.144L263.202 240.28L263.604 246.181L265.599 246.046ZM225.196 238.095C224.196 238.062 224.196 238.061 224.196 238.061C224.196 238.061 224.196 238.061 224.196 238.061C224.196 238.062 224.196 238.062 224.196 238.062C224.196 238.062 224.196 238.063 224.196 238.064C224.196 238.066 224.196 238.069 224.196 238.074C224.196 238.082 224.195 238.095 224.194 238.113C224.193 238.148 224.191 238.2 224.188 238.269C224.182 238.405 224.173 238.604 224.159 238.853C224.133 239.352 224.089 240.047 224.022 240.835C223.887 242.426 223.662 244.338 223.305 245.765L225.245 246.25C225.643 244.659 225.878 242.615 226.015 241.004C226.084 240.191 226.129 239.475 226.157 238.961C226.17 238.704 226.18 238.498 226.186 238.355C226.189 238.283 226.191 238.227 226.193 238.189C226.194 238.17 226.194 238.156 226.195 238.145C226.195 238.14 226.195 238.137 226.195 238.134C226.195 238.132 226.195 238.131 226.195 238.131C226.195 238.13 226.195 238.13 226.195 238.13C226.195 238.13 226.195 238.129 226.195 238.129C226.195 238.129 226.195 238.129 225.196 238.095ZM223.305 245.765C222.886 247.439 221.988 249.09 221.179 250.648C220.789 251.4 220.409 252.153 220.166 252.832C219.936 253.475 219.745 254.269 219.992 255.008L221.889 254.375C221.868 254.312 221.846 254.074 222.05 253.505C222.24 252.973 222.557 252.335 222.954 251.569C223.72 250.093 224.756 248.204 225.245 246.25L223.305 245.765ZM225.209 258.217C226.748 258.436 228.736 258.323 230.844 258.058C232.969 257.792 235.295 257.36 237.538 256.903L237.139 254.944C234.911 255.397 232.645 255.817 230.595 256.074C228.527 256.334 226.756 256.417 225.49 256.237L225.209 258.217ZM207.597 186.373C205.249 186.668 203.505 185.972 201.65 184.442L200.377 185.984C202.546 187.774 204.824 188.737 207.846 188.358L207.597 186.373ZM201.65 184.442C200.106 183.167 198.425 181.825 196.994 180.731C195.6 179.666 194.348 178.764 193.71 178.445L192.816 180.235C193.247 180.45 194.334 181.216 195.779 182.32C197.187 183.395 198.848 184.722 200.377 185.984L201.65 184.442ZM193.71 178.445C191.893 177.538 190.011 178.22 189.122 179.412L190.726 180.607C191.067 180.149 191.912 179.783 192.816 180.235L193.71 178.445ZM189.122 179.412C187.982 180.941 188.264 182.849 189.454 184.155L190.933 182.809C190.291 182.104 190.24 181.259 190.726 180.607L189.122 179.412ZM189.454 184.155C189.907 184.654 190.518 185.137 191.174 185.275C191.528 185.349 192.002 185.339 192.42 185.03C192.831 184.728 192.998 184.279 193.053 183.889L191.073 183.607C191.062 183.686 191.062 183.547 191.235 183.42C191.415 183.287 191.579 183.316 191.583 183.317C191.587 183.318 191.568 183.314 191.528 183.295C191.488 183.276 191.435 183.246 191.371 183.203C191.242 183.114 191.09 182.982 190.933 182.809L189.454 184.155ZM193.053 183.889C193.036 184.011 192.935 184.395 192.502 184.568C192.162 184.704 191.897 184.583 191.891 184.58C191.838 184.558 191.896 184.576 192.099 184.762C192.456 185.09 192.975 185.667 193.579 186.402C194.776 187.86 196.189 189.797 197.101 191.228L198.788 190.154C197.828 188.648 196.367 186.646 195.125 185.133C194.509 184.383 193.917 183.716 193.451 183.289C193.243 183.098 192.962 182.86 192.664 182.736C192.535 182.681 192.171 182.547 191.759 182.712C191.254 182.913 191.107 183.369 191.073 183.607L193.053 183.889ZM197.101 191.228C198.396 193.262 200.047 195.24 201.576 196.812C203.074 198.352 204.555 199.605 205.52 200.087L206.414 198.298C205.776 197.979 204.496 196.945 203.009 195.417C201.553 193.92 199.994 192.048 198.788 190.154L197.101 191.228ZM213.624 171.245L221.772 171.642L221.869 169.644L213.721 169.248L213.624 171.245ZM300.052 220.959L299.968 220.896L298.771 222.498L298.855 222.561L300.052 220.959ZM299.968 220.896C297.824 219.295 296.62 218.396 294.645 216.613L293.305 218.098C295.353 219.946 296.62 220.892 298.771 222.498L299.968 220.896ZM298.771 222.498C298.799 222.52 298.826 222.54 298.855 222.561L300.052 220.959C300.024 220.938 299.995 220.917 299.968 220.896L298.771 222.498ZM206.963 186.186C206.887 186.516 206.814 186.837 206.745 187.149L208.697 187.582C208.765 187.276 208.836 186.962 208.912 186.637L206.963 186.186ZM205.079 198.061C205.041 198.417 205.005 198.76 204.972 199.092L206.962 199.292C206.995 198.965 207.03 198.626 207.068 198.274L205.079 198.061ZM204.972 199.092C204.586 202.93 204.518 205.323 204.815 209.459L206.81 209.316C206.522 205.303 206.587 203.025 206.962 199.292L204.972 199.092ZM219.992 255.008C220.417 256.283 221.196 257.051 222.195 257.508C223.111 257.927 224.205 258.074 225.207 258.217L225.489 256.237C224.401 256.082 223.625 255.963 223.027 255.689C222.512 255.454 222.132 255.103 221.889 254.375L219.992 255.008ZM225.198 258.215L225.199 258.216L225.5 256.238L225.499 256.238L225.198 258.215ZM238.391 250.935C238.058 252.268 237.413 253.605 236.746 254.895L238.523 255.813C239.191 254.52 239.936 253.001 240.331 251.421L238.391 250.935ZM236.746 254.895C236.652 255.077 236.558 255.257 236.465 255.436L238.238 256.361C238.331 256.183 238.427 255.999 238.523 255.813L236.746 254.895ZM236.464 255.437C236.464 255.438 236.463 255.439 236.462 255.441C236.461 255.443 236.46 255.445 236.459 255.448L238.233 256.37C238.236 256.365 238.234 256.368 238.238 256.36L236.464 255.437ZM236.459 255.447C236.457 255.451 236.454 255.456 236.452 255.461L238.225 256.386C238.227 256.381 238.23 256.376 238.233 256.371L236.459 255.447ZM236.452 255.461C236.023 256.283 235.592 257.108 235.313 257.841C235.05 258.529 234.814 259.389 235.078 260.179L236.975 259.545C236.951 259.472 236.934 259.2 237.181 258.554C237.411 257.952 237.78 257.24 238.225 256.386L236.452 255.461ZM235.078 260.179C235.504 261.453 236.282 262.222 237.281 262.679C238.197 263.097 239.291 263.245 240.294 263.387L240.575 261.407C239.487 261.252 238.712 261.134 238.113 260.86C237.598 260.624 237.218 260.274 236.975 259.545L235.078 260.179ZM240.283 263.386L240.285 263.386L240.587 261.409L240.586 261.409L240.283 263.386ZM236.459 255.446C236.029 256.271 235.596 257.099 235.315 257.834C235.051 258.524 234.814 259.387 235.078 260.179L236.975 259.545C236.95 259.471 236.934 259.198 237.183 258.549C237.414 257.944 237.786 257.229 238.233 256.371L236.459 255.446ZM207.068 198.274C207.5 194.238 207.795 191.78 208.554 188.237L206.599 187.818C205.817 191.466 205.513 194.009 205.079 198.061L207.068 198.274ZM208.554 188.237C208.6 188.023 208.648 187.805 208.697 187.582L206.745 187.149C206.694 187.376 206.646 187.599 206.599 187.818L208.554 188.237ZM208.554 188.237C208.663 187.729 208.782 187.199 208.912 186.637L206.963 186.186C206.831 186.757 206.71 187.298 206.599 187.818L208.554 188.237ZM236.465 255.436L236.459 255.447L238.233 256.371L238.238 256.361L236.465 255.436ZM236.459 255.446L236.452 255.461L238.225 256.386L238.233 256.371L236.459 255.446Z" fill="#4D4D4D"/>
<ellipse cx="206.16" cy="138.91" rx="1.63299" ry="2.61278" transform="rotate(15 206.16 138.91)" fill="#4D4D4D"/>
<ellipse cx="236.11" cy="139.624" rx="1.63299" ry="2.61278" transform="rotate(15 236.11 139.624)" fill="#4D4D4D"/>
<path d="M13.8084 247.984V248.984H12.8084H1.5148V272.056C1.5148 276.149 2.54391 279.046 4.42639 280.926C6.30905 282.807 9.21271 283.838 13.3232 283.838H24.1651C25.4176 269.617 32.1228 257.471 44.1569 247.462L44.1584 247.46C56.4456 237.279 70.2249 232.16 85.4875 232.16C100.736 232.16 114.615 237.278 127.063 247.456L127.064 247.457C139.272 257.466 146.047 269.613 147.315 283.838H293.204C294.468 269.613 301.243 257.466 313.447 247.457L313.448 247.456C325.904 237.279 339.765 232.16 355.027 232.16C370.294 232.16 384.074 237.279 396.361 247.46L396.363 247.462C408.384 257.471 415.093 269.617 416.349 283.838H427.192C431.307 283.838 434.21 282.808 436.092 280.928C437.973 279.048 439 276.152 439 272.056V248.976L427.686 248.892L426.639 248.884L426.695 247.839C426.72 247.353 426.787 246.883 426.847 246.465C426.855 246.409 426.862 246.354 426.87 246.3C426.937 245.825 426.988 245.407 426.988 244.983C426.988 212.92 401.831 186.795 370.189 185.095L370.242 183.096H370.911C377.813 183.096 383.41 177.498 383.41 170.597C383.41 163.696 377.813 158.106 370.911 158.106H310.926C304.032 158.106 298.427 163.697 298.427 170.597C298.427 177.036 303.333 182.283 309.607 182.957L309.5 184.951L194.097 184.929L193.681 184.929L193.388 184.634L167.613 158.727L167.006 158.117L167.519 157.426L198.569 115.579C199.067 114.76 200.534 112.215 201.175 109.417C201.83 106.562 201.566 103.803 199.029 102.111C195.826 99.9749 192.899 100.694 190.655 102.023C189.523 102.693 188.589 103.511 187.935 104.167C187.609 104.494 187.357 104.777 187.188 104.975C187.104 105.075 187.041 105.152 187 105.204C186.979 105.229 186.964 105.248 186.955 105.26L186.946 105.272L186.946 105.272L186.945 105.273L186.945 105.274L156.953 144.978L136.347 172.256L129.557 181.245L127.654 183.764L127.153 184.427L127.025 184.597L126.992 184.64L126.984 184.651L126.982 184.654C126.981 184.654 126.981 184.655 126.183 184.052L126.981 184.655L126.681 185.052H126.183H42.4204C26.4894 185.052 13.738 196.9 13.738 211.358V214.732H13.8084V215.732V215.757V215.783V215.809V215.835V215.86V215.886V215.912V215.939V215.965V215.991V216.018V216.044V216.071V216.098V216.124V216.151V216.178V216.205V216.232V216.26V216.287V216.314V216.342V216.369V216.397V216.425V216.453V216.481V216.509V216.537V216.565V216.593V216.621V216.65V216.678V216.707V216.735V216.764V216.793V216.822V216.851V216.88V216.909V216.938V216.967V216.997V217.026V217.055V217.085V217.114V217.144V217.174V217.204V217.233V217.263V217.293V217.323V217.353V217.384V217.414V217.444V217.475V217.505V217.535V217.566V217.597V217.627V217.658V217.689V217.72V217.751V217.781V217.812V217.844V217.875V217.906V217.937V217.968V218V218.031V218.063V218.094V218.126V218.157V218.189V218.221V218.252V218.284V218.316V218.348V218.38V218.412V218.444V218.476V218.508V218.54V218.572V218.604V218.637V218.669V218.701V218.734V218.766V218.799V218.831V218.864V218.896V218.929V218.962V218.994V219.027V219.06V219.093V219.125V219.158V219.191V219.224V219.257V219.29V219.323V219.356V219.389V219.422V219.455V219.489V219.522V219.555V219.588V219.621V219.655V219.688V219.721V219.755V219.788V219.821V219.855V219.888V219.922V219.955V219.988V220.022V220.055V220.089V220.123V220.156V220.19V220.223V220.257V220.29V220.324V220.358V220.391V220.425V220.459V220.492V220.526V220.56V220.593V220.627V220.661V220.694V220.728V220.762V220.796V220.829V220.863V220.897V220.93V220.964V220.998V221.032V221.065V221.099V221.133V221.167V221.2V221.234V221.268V221.301V221.335V221.369V221.403V221.436V221.47V221.504V221.537V221.571V221.605V221.638V221.672V221.705V221.739V221.773V221.806V221.84V221.873V221.907V221.94V221.974V222.007V222.041V222.074V222.108V222.141V222.174V222.208V222.241V222.274V222.308V222.341V222.374V222.408V222.441V222.474V222.507V222.54V222.573V222.606V222.639V222.672V222.705V222.738V222.771V222.804V222.837V222.87V222.903V222.935V222.968V223.001V223.034V223.066V223.099V223.131V223.164V223.196V223.229V223.261V223.294V223.326V223.358V223.39V223.423V223.455V223.487V223.519V223.551V223.583V223.615V223.647V223.679V223.711V223.742V223.774V223.806V223.837V223.869V223.9V223.932V223.963V223.995V224.026V224.057V224.088V224.12V224.151V224.182V224.213V224.244V224.274V224.305V224.336V224.367V224.397V224.428V224.458V224.489V224.519V224.55V224.58V224.61V224.64V224.67V224.7V224.73V224.76V224.79V224.82V224.849V224.879V224.908V224.938V224.967V224.997V225.026V225.055V225.084V225.113V225.142V225.171V225.2V225.228V225.257V225.286V225.314V225.343V225.371V225.399V225.427V225.456V225.484V225.512V225.539V225.567V225.595V225.622V225.65V225.677V225.705V225.732V225.759V225.786V225.813V225.84V225.867V225.894V225.921V225.947V225.974V226V226.026V226.052V226.078V226.105V226.13V226.156V226.182V226.208V226.233V226.259V226.284V226.309V226.334V226.359V226.384V226.409V226.434V226.458V226.483V226.507V226.532V226.556V226.58V226.604V226.628V226.652V226.675V226.699V226.722V226.746V226.769V226.792V226.815V226.838V226.861V226.884V226.906V226.929V226.951V226.973V226.995V227.017V227.039V227.061V227.083V227.104V227.126V227.147V227.168V227.189V227.21V227.231V227.252V227.272V227.293V227.313V227.333V227.353V227.373V227.393V227.413V227.432V227.452V227.471V227.49V227.509V227.528V227.547V227.566V227.584V227.603V227.621V227.639V227.657V227.675V227.693V227.71V227.728V227.745V227.762V227.779V227.796V227.813V227.829V227.846V227.862V227.878V227.895V227.91V227.926V227.942V227.957V227.973V227.988V228.003V228.018V228.033V228.047V228.062V228.076V228.09V228.104V228.118V228.132V228.145V228.159V228.172V228.185V228.198V228.211V228.223V228.236V228.248V228.26V228.272V228.284V228.296V228.307V228.318V228.33V228.341V228.352V228.362V228.373V228.383V228.393V228.403V228.413V228.423V228.433V228.442V228.451V228.46V228.469V228.478V228.486V228.495V228.503V228.511V228.519V228.527V228.534V228.541V228.549V228.556V228.562V228.569V228.575V228.582V228.588V228.594V228.599V228.605V228.61V228.616V228.621V228.625V228.63V228.635V228.639V228.643V228.647V228.651V228.654V228.658V228.661V228.664V228.667V228.669V228.672V228.674V228.676V228.678V228.679V228.681V228.682V228.683V228.684V228.685V228.685V228.686V247.984Z" fill="#C2E6FA" stroke="#4D4D4D" stroke-width="2"/>
<path d="M57.0065 323.033L57.0042 323.031C49.094 315.142 45.1013 305.566 45.1013 294.545C45.1013 283.236 49.1021 273.595 56.9979 265.814C64.9107 258.1 74.6499 254.185 86.0024 254.185C97.0212 254.185 106.573 258.094 114.457 265.814C122.374 273.577 126.376 283.222 126.38 294.545L57.0065 323.033ZM57.0065 323.033C64.9027 330.959 74.6342 334.962 86.0024 334.962C97.0146 334.962 106.599 330.961 114.483 323.042L114.485 323.04M57.0065 323.033L114.485 323.04M114.485 323.04C122.379 315.151 126.38 305.584 126.38 294.545L114.485 323.04ZM98.9788 307.596C95.4023 311.205 91.0393 312.96 86.0024 312.96C80.9553 312.96 76.6024 311.204 73.0051 307.597C69.4044 303.987 67.6049 299.655 67.6049 294.545C67.6049 289.538 69.4061 285.202 73.0051 281.602C76.5926 278.005 80.9414 276.147 86.0024 276.147C91.0519 276.147 95.4156 277.999 98.9789 281.603C102.575 285.2 104.4 289.535 104.4 294.545C104.4 299.657 102.577 303.989 98.9788 307.596Z" fill="#8399A6" stroke="#4D4D4D" stroke-width="2"/>
<path d="M341.532 307.596C345.117 311.204 349.47 312.96 354.517 312.96C359.56 312.96 363.913 311.204 367.51 307.597C371.12 303.987 372.914 299.654 372.914 294.545C372.914 289.539 371.118 285.202 367.509 281.602C363.922 278.005 359.573 276.147 354.517 276.147C349.457 276.147 345.112 278 341.533 281.602C337.935 285.2 336.119 289.536 336.119 294.545C336.119 299.655 337.928 303.987 341.532 307.596ZM341.532 307.596C341.532 307.597 341.533 307.597 341.533 307.598L342.241 306.891M341.532 307.596L342.241 306.891M341.532 307.596C341.532 307.596 341.532 307.596 341.532 307.596L342.241 306.891M341.532 307.596L342.241 306.891M326.058 265.814L326.058 265.814C318.132 273.577 314.139 283.221 314.139 294.545C314.139 305.584 318.128 315.151 326.034 323.04L326.036 323.042C333.925 330.961 343.496 334.962 354.513 334.962C365.885 334.962 375.612 330.959 383.513 323.033L383.515 323.031C391.417 315.142 395.418 305.566 395.418 294.545C395.418 283.237 391.4 273.596 383.521 265.814C375.599 258.1 365.86 254.185 354.513 254.185C343.493 254.185 333.932 258.095 326.058 265.814Z" fill="#8399A6" stroke="#4D4D4D" stroke-width="2"/>
<line x1="1" y1="-1" x2="99" y2="-1" transform="matrix(-1 0 0 1 542 192)" stroke="#4D4D4D" stroke-width="2" stroke-linecap="round" stroke-linejoin="round"/>
<line x1="1" y1="-1" x2="136" y2="-1" transform="matrix(-1 -8.74228e-08 -8.74228e-08 1 579 207)" stroke="#4D4D4D" stroke-width="2" stroke-linecap="round" stroke-linejoin="round"/>
<line x1="1" y1="-1" x2="164" y2="-1" transform="matrix(-1 8.74228e-08 8.74228e-08 1 607 223)" stroke="#4D4D4D" stroke-width="2" stroke-linecap="round" stroke-linejoin="round"/>
</svg>
