<svg width="150" height="150" viewBox="0 0 150 150" fill="none" xmlns="http://www.w3.org/2000/svg">
<path d="M79.7773 48.0037C79.3323 48.0037 78.8873 47.852 78.5223 47.5403L66.4923 37.2837L55.4507 46.387C55.034 46.7303 54.4957 46.8837 53.959 46.8103C53.424 46.7387 52.944 46.4453 52.6357 46.0037L46.4973 37.257L37.269 41.5803C36.5173 41.9353 35.6257 41.7653 35.0507 41.167C34.4757 40.5687 34.3473 39.6703 34.7307 38.9337C45.8957 17.4803 60.574 5.17529 75.0023 5.17529C90.6923 5.17529 106.757 19.862 117.974 44.462C118.336 45.2537 118.124 46.1887 117.457 46.747C116.792 47.3053 115.834 47.3537 115.119 46.862L105.904 40.5453L97.264 47.4903C96.8407 47.832 96.2907 47.9753 95.7523 47.8937C95.214 47.8103 94.7357 47.502 94.4357 47.047L88.8607 38.5953L81.239 47.3403C80.8573 47.7787 80.3173 48.0037 79.7773 48.0037ZM66.514 32.822C66.9623 32.822 67.409 32.977 67.769 33.2853L79.5773 43.3537L87.614 34.1336C88.0107 33.6786 88.5807 33.4436 89.204 33.4736C89.8057 33.5136 90.3557 33.8353 90.6907 34.3403L96.494 43.142L104.596 36.6303C105.262 36.0953 106.199 36.0586 106.902 36.542L111.204 39.4903C100.979 20.2936 87.7407 9.04696 75.0023 9.04696C63.2207 9.04696 51.0323 18.6236 41.0373 35.5387L46.3257 33.062C47.1757 32.6653 48.1923 32.932 48.7307 33.7036L54.6007 42.0687L65.2807 33.2636C65.6407 32.9686 66.0773 32.822 66.514 32.822Z" fill="#6CCD69"/>
<path d="M75.0007 144.825C45.8223 144.825 22.084 121.087 22.084 91.907C22.084 79.932 26.0923 64.3387 32.8057 50.1953C32.999 49.7887 33.3257 49.4637 33.734 49.272L45.439 43.7887C46.2873 43.3903 47.304 43.6603 47.844 44.4287L54.0823 53.3153L65.254 44.1053C65.9757 43.507 67.0257 43.5153 67.7423 44.1253L79.854 54.452L87.3257 45.8787C87.7223 45.4237 88.2957 45.192 88.9156 45.2187C89.519 45.2587 90.069 45.5803 90.4023 46.0853L95.889 54.4103L104.724 47.3103C105.389 46.7753 106.327 46.7403 107.031 47.222L119.267 55.6053C119.581 55.8187 119.824 56.1203 119.966 56.472C125.022 68.8737 127.921 81.7887 127.921 91.907C127.917 121.085 104.179 144.825 75.0007 144.825ZM36.0073 52.4803C29.7057 65.962 25.9557 80.652 25.9557 91.9054C25.9557 118.95 47.9573 140.954 75.0007 140.954C102.046 140.954 124.047 118.95 124.047 91.9054C124.047 82.4154 121.334 70.257 116.594 58.4687L106.024 51.227L96.6523 58.7587C96.2273 59.1003 95.6773 59.2453 95.1407 59.162C94.6023 59.077 94.124 58.7703 93.824 58.3153L88.569 50.342L81.5123 58.437C80.814 59.2353 79.6023 59.3253 78.7957 58.6387L66.464 48.1237L54.9323 57.632C54.5157 57.9753 53.9723 58.127 53.4407 58.057C52.9057 57.9853 52.4257 57.692 52.1157 57.252L45.609 47.9837L36.0073 52.4803Z" fill="#6CCD69"/>
<path d="M42.5836 105.927C45.9738 105.927 48.722 100.509 48.722 93.8266C48.722 87.1439 45.9738 81.7266 42.5836 81.7266C39.1935 81.7266 36.4453 87.1439 36.4453 93.8266C36.4453 100.509 39.1935 105.927 42.5836 105.927Z" fill="#6CCD69"/>
<path d="M102.929 127.221C106.672 127.221 109.706 123.972 109.706 119.963C109.706 115.954 106.672 112.705 102.929 112.705C99.1864 112.705 96.1523 115.954 96.1523 119.963C96.1523 123.972 99.1864 127.221 102.929 127.221Z" fill="#6CCD69"/>
<path d="M99.5407 108.827C101.412 108.827 102.929 107.31 102.929 105.439C102.929 103.567 101.412 102.05 99.5407 102.05C97.6693 102.05 96.1523 103.567 96.1523 105.439C96.1523 107.31 97.6693 108.827 99.5407 108.827Z" fill="#6CCD69"/>
<path d="M47.5027 136.284C53.1783 139.43 58.8414 140.064 60.1515 137.701C61.4617 135.337 57.9229 130.87 52.2473 127.724C46.5717 124.578 40.9086 123.944 39.5984 126.308C38.2882 128.671 41.8271 133.138 47.5027 136.284Z" fill="#6CCD69"/>
<path d="M88.9933 19.5599C93.5619 22.5425 98.2722 23.4182 99.5142 21.5159C100.756 19.6135 98.0594 15.6535 93.4908 12.6709C88.9223 9.68826 84.2119 8.81254 82.97 10.7149C81.728 12.6172 84.4248 16.5773 88.9933 19.5599Z" fill="#6CCD69"/>
<path d="M54.5256 15.2646C51.4139 17.2958 49.5769 19.9927 50.4227 21.2885C51.2684 22.5842 54.4766 21.988 57.5884 19.9569C60.7001 17.9257 62.537 15.2288 61.6913 13.9331C60.8455 12.6373 57.6373 13.2335 54.5256 15.2646Z" fill="#6CCD69"/>
<path d="M107.492 85.1722C111.622 84.0391 113.536 77.8968 111.768 71.453C110 65.0091 105.219 60.7039 101.09 61.8369C96.96 62.9699 95.0455 69.1122 96.8135 75.5561C98.5815 81.9999 103.362 86.3052 107.492 85.1722Z" fill="#6CCD69"/>
</svg>
