<svg width="100" height="100" viewBox="0 0 100 100" fill="none" xmlns="http://www.w3.org/2000/svg">
<path d="M44.2165 48.2847C45.275 48.2847 46.1331 47.4266 46.1331 46.3681C46.1331 45.3095 45.275 44.4514 44.2165 44.4514C43.1579 44.4514 42.2998 45.3095 42.2998 46.3681C42.2998 47.4266 43.1579 48.2847 44.2165 48.2847Z" fill="#4AAC48"/>
<path d="M54.6335 48.2847C55.692 48.2847 56.5501 47.4266 56.5501 46.3681C56.5501 45.3095 55.692 44.4514 54.6335 44.4514C53.5749 44.4514 52.7168 45.3095 52.7168 46.3681C52.7168 47.4266 53.5749 48.2847 54.6335 48.2847Z" fill="#4AAC48"/>
<path d="M51.8799 50.543C50.5674 51.8545 48.2822 51.8545 46.9697 50.543C46.5791 50.1523 45.9463 50.1523 45.5557 50.543C45.165 50.9331 45.165 51.5664 45.5557 51.957C46.5889 52.9907 47.9629 53.5601 49.4248 53.5601C50.8867 53.5601 52.2607 52.9907 53.2939 51.957C53.6846 51.5664 53.6846 50.9331 53.2939 50.543C52.9033 50.1523 52.2705 50.1523 51.8799 50.543Z" fill="#4AAC48"/>
<path d="M33.0099 38.791C33.0685 39.0166 33.2716 39.166 33.4943 39.166C33.5353 39.166 33.5773 39.1611 33.6193 39.1499C40.2951 37.4238 44.9572 31.2256 44.9572 24.0767C44.9572 23.8003 44.7335 23.5767 44.4572 23.5767C44.1808 23.5767 43.9572 23.8003 43.9572 24.0767C43.9572 30.7695 39.6037 36.5698 33.3693 38.1821C33.1017 38.251 32.9415 38.5239 33.0099 38.791Z" fill="#4AAC48"/>
<path d="M60.6914 36.9277C60.7783 36.9898 60.8789 37.0195 60.9795 37.0195C61.1357 37.0195 61.29 36.9458 61.3877 36.8081C61.5469 36.5825 61.4932 36.2705 61.2676 36.1113C57.4268 33.3984 55.1328 28.8994 55.1328 24.0762C55.1328 23.7998 54.9092 23.5762 54.6328 23.5762C54.3564 23.5762 54.1328 23.7998 54.1328 24.0762C54.1328 29.2236 56.585 34.0283 60.6914 36.9277Z" fill="#4AAC48"/>
<path d="M27.2502 65.3931C27.5266 65.3931 27.7932 65.2783 27.9826 65.0737C28.2594 64.7755 33.5882 58.914 33.5828 50.473C35.4961 53.0776 38.029 55.1889 40.9696 56.5973L29.8547 80.0229C29.6174 80.522 29.8303 81.1182 30.3293 81.355C30.468 81.4209 30.6135 81.4517 30.757 81.4517C31.1311 81.4517 31.4904 81.2407 31.6613 80.8804L42.8173 57.3683C44.8861 58.1097 47.1043 58.5347 49.425 58.5347C51.7451 58.5347 53.9627 58.1099 56.0311 57.3688L67.1887 80.8804C67.3596 81.2407 67.7189 81.4517 68.093 81.4517C68.2365 81.4517 68.382 81.4209 68.5207 81.355C69.0197 81.1182 69.2326 80.522 68.9953 80.0229L57.8789 56.598C60.811 55.1941 63.3378 53.091 65.2493 50.497C65.2106 58.9802 70.5712 64.8776 70.8488 65.1768C71.0383 65.3813 71.3049 65.4961 71.5812 65.4961C71.6164 65.4961 71.6516 65.4941 71.6867 65.4902C72.0002 65.457 72.2795 65.2778 72.4406 65.0068C78.3963 54.9855 70.4666 44.087 68.8177 42.0035C68.9828 40.9799 69.092 39.9377 69.092 38.8682C69.092 28.0239 60.2697 19.2017 49.425 19.2017C38.5803 19.2017 29.758 28.0239 29.758 38.8682C29.758 39.9007 29.8619 40.9071 30.016 41.8972C28.3723 43.9732 20.4323 54.8773 26.3908 64.9038C26.552 65.1748 26.8313 65.354 27.1447 65.3872C27.1799 65.3911 27.215 65.3931 27.2502 65.3931ZM49.425 56.5347C41.7911 56.5347 35.2914 51.6583 32.8281 44.8641C40.9644 42.4243 47.1242 35.8717 49.4251 27.7073C51.7261 35.8713 57.8861 42.424 66.0218 44.8643C63.5585 51.6583 57.0588 56.5347 49.425 56.5347ZM71.4084 62.6704C70.9747 62.0718 70.4307 61.244 69.8813 60.2387C70.1563 59.383 71.0054 56.35 70.4211 53.0312C70.3732 52.7593 70.1076 52.5767 69.842 52.626C69.5705 52.6738 69.3889 52.9331 69.4367 53.2051C69.8328 55.4542 69.5051 57.6077 69.2061 58.9012C67.6311 55.5126 66.3764 50.6414 68.0832 45.1284C68.095 45.0903 68.0877 45.0527 68.0947 45.0144C68.139 44.8804 68.1896 44.7496 68.231 44.6143C70.4491 47.9052 74.6331 55.5541 71.4084 62.6704ZM67.092 38.8682C67.092 40.2753 66.909 41.6376 66.5967 42.9506C57.2467 40.1465 50.7318 31.4062 50.4523 21.2537C59.7146 21.7903 67.092 29.4738 67.092 38.8682ZM48.3977 21.2537C48.1184 31.4069 41.6037 40.147 32.2533 42.9504C31.9409 41.6375 31.758 40.2752 31.758 38.8682C31.758 29.4738 39.1354 21.7903 48.3977 21.2537ZM30.5946 44.5195C30.6412 44.6746 30.6924 44.8269 30.7428 44.9803C30.7467 44.9952 30.7427 45.01 30.7473 45.0249C32.4539 50.5374 31.1996 55.4084 29.6251 58.7971C29.3262 57.5035 28.9987 55.3505 29.3947 53.1021C29.4426 52.8301 29.2609 52.5708 28.9895 52.5229C28.7229 52.4751 28.4582 52.6558 28.4104 52.9282C27.8253 56.2463 28.6745 59.2786 28.9499 60.1351C28.4006 61.1406 27.8566 61.9687 27.4231 62.5674C24.2013 55.4571 28.3749 47.8154 30.5946 44.5195Z" fill="#4AAC48"/>
<path d="M43.4072 63.8691C42.2354 63.8691 41.2822 64.8223 41.2822 65.9941C41.2822 67.166 42.2354 68.1191 43.4072 68.1191C44.5791 68.1191 45.5322 67.166 45.5322 65.9941C45.5322 64.8223 44.5791 63.8691 43.4072 63.8691ZM43.4072 67.1191C42.7871 67.1191 42.2822 66.6143 42.2822 65.9941C42.2822 65.374 42.7871 64.8691 43.4072 64.8691C44.0273 64.8691 44.5322 65.374 44.5322 65.9941C44.5322 66.6143 44.0273 67.1191 43.4072 67.1191Z" fill="#4AAC48"/>
<path d="M55.4424 63.8691C54.2705 63.8691 53.3174 64.8223 53.3174 65.9941C53.3174 67.166 54.2705 68.1191 55.4424 68.1191C56.6142 68.1191 57.5674 67.166 57.5674 65.9941C57.5674 64.8223 56.6142 63.8691 55.4424 63.8691ZM55.4424 67.1191C54.8223 67.1191 54.3174 66.6143 54.3174 65.9941C54.3174 65.374 54.8223 64.8691 55.4424 64.8691C56.0625 64.8691 56.5674 65.374 56.5674 65.9941C56.5674 66.6143 56.0625 67.1191 55.4424 67.1191Z" fill="#4AAC48"/>
<path d="M43.4072 74.3521C42.2354 74.3521 41.2822 75.3052 41.2822 76.4771C41.2822 77.6489 42.2354 78.6021 43.4072 78.6021C44.5791 78.6021 45.5322 77.6489 45.5322 76.4771C45.5322 75.3052 44.5791 74.3521 43.4072 74.3521ZM43.4072 77.6021C42.7871 77.6021 42.2822 77.0972 42.2822 76.4771C42.2822 75.8569 42.7871 75.3521 43.4072 75.3521C44.0273 75.3521 44.5322 75.8569 44.5322 76.4771C44.5322 77.0972 44.0273 77.6021 43.4072 77.6021Z" fill="#4AAC48"/>
<path d="M55.4424 74.3521C54.2705 74.3521 53.3174 75.3052 53.3174 76.4771C53.3174 77.6489 54.2705 78.6021 55.4424 78.6021C56.6142 78.6021 57.5674 77.6489 57.5674 76.4771C57.5674 75.3052 56.6142 74.3521 55.4424 74.3521ZM55.4424 77.6021C54.8223 77.6021 54.3174 77.0972 54.3174 76.4771C54.3174 75.8569 54.8223 75.3521 55.4424 75.3521C56.0625 75.3521 56.5674 75.8569 56.5674 76.4771C56.5674 77.0972 56.0625 77.6021 55.4424 77.6021Z" fill="#4AAC48"/>
<path d="M47.2998 71.3276C47.2998 72.4995 48.2529 73.4526 49.4248 73.4526C50.5967 73.4526 51.5498 72.4995 51.5498 71.3276C51.5498 70.1558 50.5967 69.2026 49.4248 69.2026C48.2529 69.2026 47.2998 70.1558 47.2998 71.3276ZM50.5498 71.3276C50.5498 71.9477 50.0449 72.4526 49.4248 72.4526C48.8047 72.4526 48.2998 71.9477 48.2998 71.3276C48.2998 70.7075 48.8047 70.2026 49.4248 70.2026C50.0449 70.2026 50.5498 70.7075 50.5498 71.3276Z" fill="#4AAC48"/>
</svg>
