<svg width="100" height="100" viewBox="0 0 100 100" fill="none" xmlns="http://www.w3.org/2000/svg">
<path d="M34.2001 43.8H59.9001C64.6001 43.8 68.5001 39.9 68.5001 35.2V19.2C68.5001 14.5 64.6001 10.6 59.9001 10.6H19.5001C14.8001 10.6 10.9001 14.5 10.9001 19.2V35.2C10.9001 39.9 14.8001 43.8 19.5001 43.8C20.0001 43.8 20.3001 44.2 20.3001 44.6V50.4C20.3001 51.6 21.0001 52.6 22.0001 53C22.4001 53.1 22.7001 53.2 23.1001 53.2C23.8001 53.2 24.5001 52.9 25.1001 52.4L33.5001 44C33.8001 43.9 34.0001 43.8 34.2001 43.8ZM23.8001 51.1C23.4001 51.5 23.0001 51.3 22.9001 51.3C22.8001 51.3 22.4001 51 22.4001 50.5V44.7C22.4001 43.1 21.1001 41.9 19.6001 41.9C16.0001 41.9 13.0001 38.9 13.0001 35.3V19.3C13.0001 15.7 16.0001 12.7 19.6001 12.7H59.9001C63.5001 12.7 66.5001 15.7 66.5001 19.3V35.3C66.5001 38.9 63.5001 41.9 59.9001 41.9H34.2001C33.4001 41.9 32.7001 42.2 32.2001 42.7L23.8001 51.1Z" fill="#4AAC47"/>
<path d="M80.5 46.7H40.1C35.4 46.7 31.5 50.5999 31.5 55.2999V71.2999C31.5 75.9999 35.4 79.8999 40.1 79.8999H65.8C66 79.8999 66.2 79.9999 66.4 80.0999L74.8 88.4999C75.3 88.9999 76.1 89.2999 76.8 89.2999C77.2 89.2999 77.5 89.1999 77.9 89.0999C79 88.6999 79.7 87.5999 79.7 86.4999V80.6999C79.7 80.1999 80.1 79.8999 80.5 79.8999C85.2 79.8999 89.1 75.9999 89.1 71.2999V55.2999C89 50.4999 85.2 46.7 80.5 46.7ZM87 71.1999C87 74.7999 84 77.7999 80.4 77.7999C78.8 77.7999 77.6 79.0999 77.6 80.5999V86.3999C77.6 86.8999 77.2 87.0999 77.1 87.1999C77 87.1999 76.6 87.3999 76.2 86.9999L67.8 78.5999C67.3 78.0999 66.6 77.7999 65.8 77.7999H40.1C36.5 77.7999 33.5 74.7999 33.5 71.1999V55.1999C33.5 51.5999 36.5 48.5999 40.1 48.5999H80.4C84 48.5999 87 51.5999 87 55.1999V71.1999Z" fill="#4AAC47"/>
</svg>
