<svg height='300px' width='300px'  fill="#fff" xmlns="http://www.w3.org/2000/svg" xmlns:xlink="http://www.w3.org/1999/xlink" xml:space="preserve" version="1.1" style="shape-rendering:geometricPrecision;text-rendering:geometricPrecision;image-rendering:optimizeQuality;" viewBox="0 0 332 332" x="0px" y="0px" fill-rule="evenodd" clip-rule="evenodd"><defs><style type="text/css">
   
    .fil0 {fill:#fff}
   
  </style></defs><g><path class="fil0" d="M166 0c46,0 87,19 117,49 30,30 49,71 49,117 0,46 -19,87 -49,117 -30,30 -71,49 -117,49 -46,0 -87,-19 -117,-49 -30,-30 -49,-71 -49,-117 0,-46 19,-87 49,-117 30,-30 71,-49 117,-49zm109 57c-28,-28 -67,-45 -109,-45 -43,0 -81,17 -109,45 -28,28 -45,66 -45,109 0,42 17,81 45,109 28,27 66,45 109,45 42,0 81,-18 109,-45 27,-28 45,-67 45,-109 0,-43 -18,-81 -45,-109zm-44 118l-46 26 -45 26c-8,5 -16,4 -16,-9l0 -52 0 -53c0,-11 6,-15 15,-9l46 26 46 26c8,5 9,14 0,19z"></path></g></svg>