<svg height='300px' width='300px'  fill="#fff" xmlns="http://www.w3.org/2000/svg" xmlns:xlink="http://www.w3.org/1999/xlink" xml:space="preserve" version="1.1" style="shape-rendering:geometricPrecision;text-rendering:geometricPrecision;image-rendering:optimizeQuality;" viewBox="0 0 847 847" x="0px" y="0px" fill-rule="evenodd" clip-rule="evenodd"><defs><style type="text/css">
   
    .fil0 {fill:#fff;fill-rule:nonzero}
   
  </style></defs><g><path class="fil0" d="M423 73c97,0 185,39 248,103 218,217 67,598 -248,598 -193,0 -350,-157 -350,-351 0,-193 157,-350 350,-350zm-186 261c16,-63 107,-63 122,0l-24 6c-10,-37 -64,-37 -73,0l-25 -6zm250 0c16,-63 107,-63 122,0l-24 6c-10,-37 -64,-37 -73,0l-25 -6zm-205 168c33,150 250,150 282,0l25 5c-38,177 -293,177 -331,0l24 -5zm365 -303c-57,-57 -136,-92 -224,-92 -174,0 -316,141 -316,316 0,175 142,317 316,317 284,0 421,-344 224,-541z"></path></g></svg>