<svg height='300px' width='300px'  fill="#fff" xmlns="http://www.w3.org/2000/svg" xmlns:xlink="http://www.w3.org/1999/xlink" xml:space="preserve" version="1.1" style="shape-rendering:geometricPrecision;text-rendering:geometricPrecision;image-rendering:optimizeQuality;" viewBox="0 0 847 847" x="0px" y="0px" fill-rule="evenodd" clip-rule="evenodd"><defs><style type="text/css">
   
    .fil0 {fill:#fff;fill-rule:nonzero}
   
  </style></defs><g><path class="fil0" d="M423 73c97,0 185,39 248,103 218,217 67,598 -248,598 -193,0 -350,-157 -350,-351 0,-193 157,-350 350,-350zm173 570c-40,-185 -305,-185 -346,0l20 4c36,-164 271,-164 307,0l19 -4zm-303 -249c24,0 44,-20 44,-44 0,-24 -20,-44 -44,-44 -24,0 -43,20 -43,44 0,24 19,44 43,44zm260 0c25,0 44,-20 44,-44 0,-24 -19,-44 -44,-44 -24,0 -43,20 -43,44 0,24 19,44 43,44zm94 -195c-57,-57 -136,-92 -224,-92 -174,0 -316,141 -316,316 0,175 142,317 316,317 284,0 421,-344 224,-541z"></path></g></svg>