<svg width="100" height="100" viewBox="0 0 100 100" fill="none" xmlns="http://www.w3.org/2000/svg">
<path d="M49.6749 64.9847C48.2062 64.9847 46.7376 64.9847 45.2689 64.9847C45.0791 65.0012 44.888 64.977 44.7083 64.9137C44.5286 64.8504 44.3644 64.7495 44.2266 64.6176C44.0888 64.4857 43.9806 64.326 43.9092 64.1489C43.8377 63.9718 43.8047 63.7816 43.8123 63.5907C43.6328 59.7844 43.9313 55.9705 44.7007 52.2388C45.1379 50.3872 46.0795 48.6938 47.4205 47.3477C48.6293 46.0628 49.9348 44.8688 51.2403 43.7112C52.6586 42.4344 54.1072 41.1899 55.5859 39.9777C58.4689 37.5776 58.1304 33.335 54.498 31.3168C53.4579 30.7513 52.3111 30.4109 51.1316 30.3175C49.9522 30.224 48.7663 30.3797 47.6506 30.7743C46.5348 31.169 45.514 31.7939 44.654 32.6087C43.7941 33.4235 43.114 34.4101 42.6579 35.5048C42.3688 36.2491 42.1246 37.0101 41.9266 37.7837C41.6425 38.8383 41.165 39.214 40.0711 39.0868C37.2002 38.7474 34.3293 38.3898 31.4584 38.0322C31.2386 38.0254 31.023 37.9703 30.8266 37.8709C30.6303 37.7715 30.4581 37.6302 30.3221 37.4568C30.1862 37.2835 30.0897 37.0824 30.0396 36.8677C29.9895 36.6529 29.9869 36.4298 30.0321 36.2139C30.6183 28.6136 36.5293 22.1286 44.6463 20.5649C49.8442 19.5648 54.9815 19.8073 59.8771 21.9831C64.2348 23.9165 67.4804 27.0621 69.1183 31.6198C69.9467 33.7401 70.1974 36.0432 69.8448 38.2927C69.4921 40.5423 68.5488 42.6572 67.1117 44.4203C65.1293 47.0265 62.6211 49.1235 60.1491 51.2448C59.3392 51.9418 58.5716 52.6873 57.7315 53.3782C57.0812 53.9124 56.5632 54.5905 56.2182 55.3592C55.8732 56.1279 55.7106 56.9663 55.7431 57.8087C55.7431 59.6572 55.6282 61.5058 55.5799 63.3543C55.6029 63.576 55.5761 63.8 55.5015 64.0099C55.4269 64.2198 55.3062 64.4102 55.1485 64.5672C54.9908 64.7242 54.8 64.8437 54.5902 64.917C54.3803 64.9903 54.1568 65.0155 53.9359 64.9908C52.5095 64.9908 51.0832 64.9908 49.6568 64.9908L49.6749 64.9847Z" fill="#4AAC47"/>
<path d="M55.9998 74.0542C55.989 75.2409 55.6267 76.3976 54.9585 77.3783C54.2904 78.359 53.3464 79.1195 52.246 79.5638C51.1456 80.008 49.9382 80.1159 48.7765 79.8739C47.6148 79.6319 46.5509 79.0509 45.7194 78.2043C44.8878 77.3577 44.326 76.2835 44.105 75.1176C43.884 73.9517 44.0136 72.7464 44.4776 71.6542C44.9415 70.562 45.7189 69.6319 46.7115 68.9815C47.704 68.3311 48.8671 67.9896 50.0538 68.0002C50.8417 68.0073 51.6205 68.1695 52.3458 68.4776C53.071 68.7856 53.7285 69.2335 54.2807 69.7957C54.8328 70.3579 55.2688 71.0233 55.5638 71.754C55.8587 72.4847 56.0069 73.2663 55.9998 74.0542V74.0542Z" fill="#4AAC47"/>
</svg>
